<mxfile host="Electron" agent="Mozilla/5.0 (Windows NT 10.0; Win64; x64) AppleWebKit/537.36 (KHTML, like Gecko) draw.io/27.0.9 Chrome/134.0.6998.205 Electron/35.4.0 Safari/537.36" version="27.0.9">
  <diagram id="C5RBs43oDa-KdzZeNtuy" name="Page-1">
    <mxGraphModel dx="2722" dy="1138" grid="1" gridSize="13" guides="1" tooltips="1" connect="1" arrows="1" fold="1" page="1" pageScale="1" pageWidth="827" pageHeight="1169" math="0" shadow="0">
      <root>
        <mxCell id="WIyWlLk6GJQsqaUBKTNV-0" />
        <mxCell id="WIyWlLk6GJQsqaUBKTNV-1" parent="WIyWlLk6GJQsqaUBKTNV-0" />
        <mxCell id="CtTwP5JheZMf3GZqyAbj-14" style="edgeStyle=orthogonalEdgeStyle;rounded=0;orthogonalLoop=1;jettySize=auto;html=1;entryX=0.5;entryY=1;entryDx=0;entryDy=0;exitX=1;exitY=0.5;exitDx=0;exitDy=0;" parent="WIyWlLk6GJQsqaUBKTNV-1" source="2Y-ausqchybXp7Ne50L6-8" target="CtTwP5JheZMf3GZqyAbj-3" edge="1">
          <mxGeometry relative="1" as="geometry">
            <Array as="points">
              <mxPoint x="230" y="780" />
              <mxPoint x="345" y="780" />
              <mxPoint x="345" y="1030" />
              <mxPoint x="500" y="1030" />
            </Array>
            <mxPoint x="250" y="780.0769230769231" as="sourcePoint" />
          </mxGeometry>
        </mxCell>
        <mxCell id="CtTwP5JheZMf3GZqyAbj-40" value="&lt;font style=&quot;font-size: 14px;&quot;&gt;генерация данных&lt;/font&gt;" style="edgeLabel;html=1;align=center;verticalAlign=middle;resizable=0;points=[];" parent="CtTwP5JheZMf3GZqyAbj-14" vertex="1" connectable="0">
          <mxGeometry x="-0.2243" relative="1" as="geometry">
            <mxPoint y="1" as="offset" />
          </mxGeometry>
        </mxCell>
        <mxCell id="2Y-ausqchybXp7Ne50L6-3" value="&lt;font style=&quot;font-size: 14px;&quot;&gt;инициализация данных&lt;/font&gt;" style="edgeLabel;html=1;align=center;verticalAlign=middle;resizable=0;points=[];" vertex="1" connectable="0" parent="CtTwP5JheZMf3GZqyAbj-14">
          <mxGeometry x="0.8946" y="2" relative="1" as="geometry">
            <mxPoint as="offset" />
          </mxGeometry>
        </mxCell>
        <mxCell id="CtTwP5JheZMf3GZqyAbj-5" value="" style="rounded=0;whiteSpace=wrap;html=1;" parent="WIyWlLk6GJQsqaUBKTNV-1" vertex="1">
          <mxGeometry x="820" y="920" width="120" height="60" as="geometry" />
        </mxCell>
        <mxCell id="CtTwP5JheZMf3GZqyAbj-6" value="&lt;font style=&quot;font-size: 14px;&quot;&gt;mongodb&lt;/font&gt;" style="rounded=0;whiteSpace=wrap;html=1;" parent="WIyWlLk6GJQsqaUBKTNV-1" vertex="1">
          <mxGeometry x="990" y="920" width="120" height="60" as="geometry" />
        </mxCell>
        <mxCell id="CtTwP5JheZMf3GZqyAbj-7" value="&lt;font style=&quot;font-size: 14px;&quot;&gt;redis&lt;/font&gt;" style="rounded=0;whiteSpace=wrap;html=1;" parent="WIyWlLk6GJQsqaUBKTNV-1" vertex="1">
          <mxGeometry x="1181" y="920" width="120" height="60" as="geometry" />
        </mxCell>
        <mxCell id="CtTwP5JheZMf3GZqyAbj-10" value="" style="group" parent="WIyWlLk6GJQsqaUBKTNV-1" vertex="1" connectable="0">
          <mxGeometry x="440" y="920" width="120" height="60" as="geometry" />
        </mxCell>
        <mxCell id="CtTwP5JheZMf3GZqyAbj-3" value="" style="rounded=0;whiteSpace=wrap;html=1;" parent="CtTwP5JheZMf3GZqyAbj-10" vertex="1">
          <mxGeometry width="120" height="60" as="geometry" />
        </mxCell>
        <mxCell id="CtTwP5JheZMf3GZqyAbj-9" value="&lt;font style=&quot;font-size: 14px;&quot;&gt;neo4&lt;span style=&quot;background-color: transparent; color: light-dark(rgb(0, 0, 0), rgb(255, 255, 255));&quot;&gt;j&lt;/span&gt;&lt;/font&gt;" style="text;html=1;align=center;verticalAlign=middle;whiteSpace=wrap;rounded=0;" parent="CtTwP5JheZMf3GZqyAbj-10" vertex="1">
          <mxGeometry x="30" y="15" width="60" height="30" as="geometry" />
        </mxCell>
        <mxCell id="CtTwP5JheZMf3GZqyAbj-11" value="" style="group" parent="WIyWlLk6GJQsqaUBKTNV-1" vertex="1" connectable="0">
          <mxGeometry x="630" y="920" width="120" height="60" as="geometry" />
        </mxCell>
        <mxCell id="CtTwP5JheZMf3GZqyAbj-4" value="" style="rounded=0;whiteSpace=wrap;html=1;" parent="CtTwP5JheZMf3GZqyAbj-11" vertex="1">
          <mxGeometry width="120" height="60" as="geometry" />
        </mxCell>
        <mxCell id="CtTwP5JheZMf3GZqyAbj-8" value="&lt;font style=&quot;font-size: 14px;&quot;&gt;postgres&lt;/font&gt;" style="text;html=1;align=center;verticalAlign=middle;whiteSpace=wrap;rounded=0;" parent="CtTwP5JheZMf3GZqyAbj-11" vertex="1">
          <mxGeometry x="30" y="15" width="60" height="30" as="geometry" />
        </mxCell>
        <mxCell id="CtTwP5JheZMf3GZqyAbj-12" value="&lt;font style=&quot;font-size: 14px;&quot;&gt;elasticsearch&lt;/font&gt;" style="text;html=1;align=center;verticalAlign=middle;whiteSpace=wrap;rounded=0;" parent="WIyWlLk6GJQsqaUBKTNV-1" vertex="1">
          <mxGeometry x="850" y="935" width="60" height="30" as="geometry" />
        </mxCell>
        <mxCell id="CtTwP5JheZMf3GZqyAbj-15" value="" style="endArrow=classic;html=1;rounded=0;entryX=0.5;entryY=1;entryDx=0;entryDy=0;" parent="WIyWlLk6GJQsqaUBKTNV-1" target="CtTwP5JheZMf3GZqyAbj-4" edge="1">
          <mxGeometry width="50" height="50" relative="1" as="geometry">
            <mxPoint x="500" y="1030" as="sourcePoint" />
            <mxPoint x="660" y="940" as="targetPoint" />
            <Array as="points">
              <mxPoint x="690" y="1030" />
            </Array>
          </mxGeometry>
        </mxCell>
        <mxCell id="2Y-ausqchybXp7Ne50L6-4" value="&lt;font style=&quot;font-size: 14px;&quot;&gt;инициализация данных&lt;/font&gt;" style="edgeLabel;html=1;align=center;verticalAlign=middle;resizable=0;points=[];" vertex="1" connectable="0" parent="CtTwP5JheZMf3GZqyAbj-15">
          <mxGeometry x="0.7455" y="1" relative="1" as="geometry">
            <mxPoint as="offset" />
          </mxGeometry>
        </mxCell>
        <mxCell id="CtTwP5JheZMf3GZqyAbj-16" value="" style="endArrow=classic;html=1;rounded=0;entryX=0.5;entryY=1;entryDx=0;entryDy=0;" parent="WIyWlLk6GJQsqaUBKTNV-1" target="CtTwP5JheZMf3GZqyAbj-5" edge="1">
          <mxGeometry width="50" height="50" relative="1" as="geometry">
            <mxPoint x="690" y="1030" as="sourcePoint" />
            <mxPoint x="850" y="1030" as="targetPoint" />
            <Array as="points">
              <mxPoint x="880" y="1030" />
            </Array>
          </mxGeometry>
        </mxCell>
        <mxCell id="2Y-ausqchybXp7Ne50L6-5" value="&lt;font style=&quot;font-size: 14px;&quot;&gt;инициализация данных&lt;/font&gt;" style="edgeLabel;html=1;align=center;verticalAlign=middle;resizable=0;points=[];" vertex="1" connectable="0" parent="CtTwP5JheZMf3GZqyAbj-16">
          <mxGeometry x="0.7712" y="-1" relative="1" as="geometry">
            <mxPoint as="offset" />
          </mxGeometry>
        </mxCell>
        <mxCell id="CtTwP5JheZMf3GZqyAbj-17" value="" style="endArrow=classic;html=1;rounded=0;entryX=0.5;entryY=1;entryDx=0;entryDy=0;" parent="WIyWlLk6GJQsqaUBKTNV-1" target="CtTwP5JheZMf3GZqyAbj-6" edge="1">
          <mxGeometry width="50" height="50" relative="1" as="geometry">
            <mxPoint x="880" y="1030" as="sourcePoint" />
            <mxPoint x="1000" y="990" as="targetPoint" />
            <Array as="points">
              <mxPoint x="1050" y="1030" />
            </Array>
          </mxGeometry>
        </mxCell>
        <mxCell id="2Y-ausqchybXp7Ne50L6-6" value="&lt;font style=&quot;font-size: 14px;&quot;&gt;инициализация данных&lt;/font&gt;" style="edgeLabel;html=1;align=center;verticalAlign=middle;resizable=0;points=[];" vertex="1" connectable="0" parent="CtTwP5JheZMf3GZqyAbj-17">
          <mxGeometry x="0.7503" y="-3" relative="1" as="geometry">
            <mxPoint as="offset" />
          </mxGeometry>
        </mxCell>
        <mxCell id="CtTwP5JheZMf3GZqyAbj-18" value="" style="endArrow=classic;html=1;rounded=0;entryX=0.5;entryY=1;entryDx=0;entryDy=0;" parent="WIyWlLk6GJQsqaUBKTNV-1" target="CtTwP5JheZMf3GZqyAbj-7" edge="1">
          <mxGeometry width="50" height="50" relative="1" as="geometry">
            <mxPoint x="1050" y="1030" as="sourcePoint" />
            <mxPoint x="1180" y="1010" as="targetPoint" />
            <Array as="points">
              <mxPoint x="1241" y="1030" />
            </Array>
          </mxGeometry>
        </mxCell>
        <mxCell id="2Y-ausqchybXp7Ne50L6-7" value="&lt;font style=&quot;font-size: 14px;&quot;&gt;инициализация данных&lt;/font&gt;" style="edgeLabel;html=1;align=center;verticalAlign=middle;resizable=0;points=[];" vertex="1" connectable="0" parent="CtTwP5JheZMf3GZqyAbj-18">
          <mxGeometry x="0.7976" y="-2" relative="1" as="geometry">
            <mxPoint as="offset" />
          </mxGeometry>
        </mxCell>
        <mxCell id="CtTwP5JheZMf3GZqyAbj-19" value="&lt;font style=&quot;font-size: 13px;&quot;&gt;Сервис lab1&lt;/font&gt;" style="ellipse;whiteSpace=wrap;html=1;aspect=fixed;" parent="WIyWlLk6GJQsqaUBKTNV-1" vertex="1">
          <mxGeometry x="380" y="465" width="120" height="120" as="geometry" />
        </mxCell>
        <mxCell id="CtTwP5JheZMf3GZqyAbj-20" value="&lt;font style=&quot;font-size: 13px;&quot;&gt;Сервис lab2&lt;/font&gt;" style="ellipse;whiteSpace=wrap;html=1;aspect=fixed;" parent="WIyWlLk6GJQsqaUBKTNV-1" vertex="1">
          <mxGeometry x="800" y="440" width="120" height="120" as="geometry" />
        </mxCell>
        <mxCell id="CtTwP5JheZMf3GZqyAbj-21" value="&lt;font style=&quot;font-size: 13px;&quot;&gt;Сервис lab3&lt;/font&gt;" style="ellipse;whiteSpace=wrap;html=1;aspect=fixed;" parent="WIyWlLk6GJQsqaUBKTNV-1" vertex="1">
          <mxGeometry x="1160" y="465" width="120" height="120" as="geometry" />
        </mxCell>
        <mxCell id="CtTwP5JheZMf3GZqyAbj-22" value="" style="endArrow=classic;html=1;rounded=0;exitX=0.5;exitY=0;exitDx=0;exitDy=0;entryX=1;entryY=1;entryDx=0;entryDy=0;fillColor=#ffe6cc;strokeColor=#d79b00;" parent="WIyWlLk6GJQsqaUBKTNV-1" source="CtTwP5JheZMf3GZqyAbj-5" target="CtTwP5JheZMf3GZqyAbj-19" edge="1">
          <mxGeometry width="50" height="50" relative="1" as="geometry">
            <mxPoint x="887.57" y="907.57" as="sourcePoint" />
            <mxPoint x="629.996406871193" y="699.996406871193" as="targetPoint" />
          </mxGeometry>
        </mxCell>
        <mxCell id="CtTwP5JheZMf3GZqyAbj-23" value="&lt;font style=&quot;font-size: 13px;&quot;&gt;получение id лекций&lt;/font&gt;&lt;span style=&quot;font-size: 13px; background-color: light-dark(#ffffff, var(--ge-dark-color, #121212)); color: light-dark(rgb(0, 0, 0), rgb(255, 255, 255));&quot;&gt;&amp;nbsp;по термину&lt;/span&gt;&lt;div&gt;&lt;div&gt;&lt;font style=&quot;font-size: 13px;&quot;&gt;&lt;br&gt;&lt;/font&gt;&lt;/div&gt;&lt;/div&gt;" style="edgeLabel;html=1;align=center;verticalAlign=middle;resizable=0;points=[];" parent="CtTwP5JheZMf3GZqyAbj-22" vertex="1" connectable="0">
          <mxGeometry x="0.1278" y="-3" relative="1" as="geometry">
            <mxPoint x="-108" y="-109" as="offset" />
          </mxGeometry>
        </mxCell>
        <mxCell id="CtTwP5JheZMf3GZqyAbj-24" value="" style="endArrow=classic;html=1;rounded=0;exitX=0.25;exitY=0;exitDx=0;exitDy=0;entryX=0.5;entryY=1;entryDx=0;entryDy=0;fillColor=#ffe6cc;strokeColor=#d79b00;" parent="WIyWlLk6GJQsqaUBKTNV-1" source="CtTwP5JheZMf3GZqyAbj-4" target="CtTwP5JheZMf3GZqyAbj-19" edge="1">
          <mxGeometry width="50" height="50" relative="1" as="geometry">
            <mxPoint x="540" y="840" as="sourcePoint" />
            <mxPoint x="590" y="790" as="targetPoint" />
          </mxGeometry>
        </mxCell>
        <mxCell id="CtTwP5JheZMf3GZqyAbj-25" value="&lt;font style=&quot;font-size: 13px;&quot;&gt;данные о посещаемости&amp;nbsp;&lt;/font&gt;&lt;div&gt;&lt;font style=&quot;font-size: 13px;&quot;&gt;студентов&lt;/font&gt;&lt;/div&gt;" style="edgeLabel;html=1;align=center;verticalAlign=middle;resizable=0;points=[];" parent="CtTwP5JheZMf3GZqyAbj-24" vertex="1" connectable="0">
          <mxGeometry x="0.0827" y="-1" relative="1" as="geometry">
            <mxPoint x="-32" y="-68" as="offset" />
          </mxGeometry>
        </mxCell>
        <mxCell id="CtTwP5JheZMf3GZqyAbj-26" value="" style="endArrow=classic;html=1;rounded=0;entryX=1;entryY=0.5;entryDx=0;entryDy=0;exitX=0.5;exitY=0;exitDx=0;exitDy=0;fillColor=#ffe6cc;strokeColor=#d79b00;" parent="WIyWlLk6GJQsqaUBKTNV-1" source="CtTwP5JheZMf3GZqyAbj-7" target="CtTwP5JheZMf3GZqyAbj-19" edge="1">
          <mxGeometry width="50" height="50" relative="1" as="geometry">
            <mxPoint x="1070" y="830" as="sourcePoint" />
            <mxPoint x="1120" y="780" as="targetPoint" />
          </mxGeometry>
        </mxCell>
        <mxCell id="CtTwP5JheZMf3GZqyAbj-28" value="&lt;font style=&quot;font-size: 13px;&quot;&gt;Данные о студентах по id&lt;/font&gt;" style="edgeLabel;html=1;align=center;verticalAlign=middle;resizable=0;points=[];" parent="CtTwP5JheZMf3GZqyAbj-26" vertex="1" connectable="0">
          <mxGeometry x="-0.0053" y="-1" relative="1" as="geometry">
            <mxPoint x="228" y="118" as="offset" />
          </mxGeometry>
        </mxCell>
        <mxCell id="CtTwP5JheZMf3GZqyAbj-27" value="" style="endArrow=classic;html=1;rounded=0;entryX=0.5;entryY=1;entryDx=0;entryDy=0;exitX=0.5;exitY=0;exitDx=0;exitDy=0;fillColor=#d5e8d4;strokeColor=#82b366;" parent="WIyWlLk6GJQsqaUBKTNV-1" source="CtTwP5JheZMf3GZqyAbj-7" target="CtTwP5JheZMf3GZqyAbj-21" edge="1">
          <mxGeometry width="50" height="50" relative="1" as="geometry">
            <mxPoint x="1140" y="680" as="sourcePoint" />
            <mxPoint x="1190" y="630" as="targetPoint" />
          </mxGeometry>
        </mxCell>
        <mxCell id="CtTwP5JheZMf3GZqyAbj-29" value="&lt;font style=&quot;font-size: 13px;&quot;&gt;Данные о студентах по id&lt;/font&gt;" style="edgeLabel;html=1;align=center;verticalAlign=middle;resizable=0;points=[];" parent="CtTwP5JheZMf3GZqyAbj-27" vertex="1" connectable="0">
          <mxGeometry x="-0.0082" y="2" relative="1" as="geometry">
            <mxPoint as="offset" />
          </mxGeometry>
        </mxCell>
        <mxCell id="CtTwP5JheZMf3GZqyAbj-30" value="" style="endArrow=classic;html=1;rounded=0;entryX=0.423;entryY=0.969;entryDx=0;entryDy=0;entryPerimeter=0;exitX=0.5;exitY=0;exitDx=0;exitDy=0;" parent="WIyWlLk6GJQsqaUBKTNV-1" source="CtTwP5JheZMf3GZqyAbj-4" target="CtTwP5JheZMf3GZqyAbj-20" edge="1">
          <mxGeometry width="50" height="50" relative="1" as="geometry">
            <mxPoint x="430" y="730" as="sourcePoint" />
            <mxPoint x="480" y="680" as="targetPoint" />
          </mxGeometry>
        </mxCell>
        <mxCell id="CtTwP5JheZMf3GZqyAbj-38" value="&lt;font style=&quot;font-size: 13px;&quot;&gt;Данные о курсе лекций&amp;nbsp;&lt;/font&gt;&lt;div&gt;&lt;font style=&quot;font-size: 13px;&quot;&gt;по названию курса,&lt;/font&gt;&lt;div&gt;&lt;font style=&quot;font-size: 13px;&quot;&gt;о кол-ве лекций и посещаемости&lt;/font&gt;&lt;/div&gt;&lt;/div&gt;" style="edgeLabel;html=1;align=center;verticalAlign=middle;resizable=0;points=[];" parent="CtTwP5JheZMf3GZqyAbj-30" vertex="1" connectable="0">
          <mxGeometry x="-0.7011" y="2" relative="1" as="geometry">
            <mxPoint x="115" y="-244" as="offset" />
          </mxGeometry>
        </mxCell>
        <mxCell id="CtTwP5JheZMf3GZqyAbj-31" value="" style="endArrow=classic;html=1;rounded=0;entryX=0.301;entryY=0.986;entryDx=0;entryDy=0;entryPerimeter=0;exitX=0.75;exitY=0;exitDx=0;exitDy=0;fillColor=#d5e8d4;strokeColor=#82b366;" parent="WIyWlLk6GJQsqaUBKTNV-1" source="CtTwP5JheZMf3GZqyAbj-4" target="CtTwP5JheZMf3GZqyAbj-21" edge="1">
          <mxGeometry width="50" height="50" relative="1" as="geometry">
            <mxPoint x="440" y="750" as="sourcePoint" />
            <mxPoint x="490" y="700" as="targetPoint" />
          </mxGeometry>
        </mxCell>
        <mxCell id="CtTwP5JheZMf3GZqyAbj-39" value="&lt;font style=&quot;font-size: 13px;&quot;&gt;1) Данные о специальных лекциях и группах&lt;/font&gt;&lt;div&gt;&lt;font style=&quot;font-size: 13px;&quot;&gt;2) подсчет посещаемости&lt;/font&gt;&lt;/div&gt;" style="edgeLabel;html=1;align=center;verticalAlign=middle;resizable=0;points=[];" parent="CtTwP5JheZMf3GZqyAbj-31" vertex="1" connectable="0">
          <mxGeometry x="-0.221" y="-1" relative="1" as="geometry">
            <mxPoint x="114" y="-80" as="offset" />
          </mxGeometry>
        </mxCell>
        <mxCell id="CtTwP5JheZMf3GZqyAbj-32" value="" style="endArrow=classic;html=1;rounded=0;entryX=0.191;entryY=0.936;entryDx=0;entryDy=0;entryPerimeter=0;exitX=0.25;exitY=0;exitDx=0;exitDy=0;fillColor=#ffe6cc;strokeColor=#d79b00;" parent="WIyWlLk6GJQsqaUBKTNV-1" source="CtTwP5JheZMf3GZqyAbj-3" target="CtTwP5JheZMf3GZqyAbj-19" edge="1">
          <mxGeometry width="50" height="50" relative="1" as="geometry">
            <mxPoint x="380" y="710" as="sourcePoint" />
            <mxPoint x="430" y="660" as="targetPoint" />
          </mxGeometry>
        </mxCell>
        <mxCell id="CtTwP5JheZMf3GZqyAbj-35" value="&lt;font style=&quot;font-size: 13px;&quot;&gt;получение id студентов,&amp;nbsp;&lt;/font&gt;&lt;div&gt;&lt;font style=&quot;font-size: 13px;&quot;&gt;посещавшие лекции из elasticsearch&lt;/font&gt;&lt;/div&gt;" style="edgeLabel;html=1;align=center;verticalAlign=middle;resizable=0;points=[];" parent="CtTwP5JheZMf3GZqyAbj-32" vertex="1" connectable="0">
          <mxGeometry x="-0.0622" relative="1" as="geometry">
            <mxPoint as="offset" />
          </mxGeometry>
        </mxCell>
        <mxCell id="CtTwP5JheZMf3GZqyAbj-33" value="" style="endArrow=classic;html=1;rounded=0;entryX=0;entryY=1;entryDx=0;entryDy=0;exitX=0.75;exitY=0;exitDx=0;exitDy=0;fillColor=#d5e8d4;strokeColor=#82b366;" parent="WIyWlLk6GJQsqaUBKTNV-1" source="CtTwP5JheZMf3GZqyAbj-3" target="CtTwP5JheZMf3GZqyAbj-21" edge="1">
          <mxGeometry width="50" height="50" relative="1" as="geometry">
            <mxPoint x="340" y="710" as="sourcePoint" />
            <mxPoint x="390" y="660" as="targetPoint" />
          </mxGeometry>
        </mxCell>
        <mxCell id="CtTwP5JheZMf3GZqyAbj-37" value="&lt;font style=&quot;font-size: 13px;&quot;&gt;Данные о студентах и расписании&lt;/font&gt;" style="edgeLabel;html=1;align=center;verticalAlign=middle;resizable=0;points=[];" parent="CtTwP5JheZMf3GZqyAbj-33" vertex="1" connectable="0">
          <mxGeometry x="0.6076" y="3" relative="1" as="geometry">
            <mxPoint as="offset" />
          </mxGeometry>
        </mxCell>
        <mxCell id="2Y-ausqchybXp7Ne50L6-9" value="Text" style="edgeLabel;html=1;align=center;verticalAlign=middle;resizable=0;points=[];" vertex="1" connectable="0" parent="CtTwP5JheZMf3GZqyAbj-33">
          <mxGeometry x="0.163" y="2" relative="1" as="geometry">
            <mxPoint as="offset" />
          </mxGeometry>
        </mxCell>
        <mxCell id="CtTwP5JheZMf3GZqyAbj-34" value="" style="endArrow=classic;html=1;rounded=0;entryX=0;entryY=1;entryDx=0;entryDy=0;exitX=0.5;exitY=0;exitDx=0;exitDy=0;" parent="WIyWlLk6GJQsqaUBKTNV-1" source="CtTwP5JheZMf3GZqyAbj-3" target="CtTwP5JheZMf3GZqyAbj-20" edge="1">
          <mxGeometry width="50" height="50" relative="1" as="geometry">
            <mxPoint x="600" y="960" as="sourcePoint" />
            <mxPoint x="400" y="610" as="targetPoint" />
          </mxGeometry>
        </mxCell>
        <mxCell id="CtTwP5JheZMf3GZqyAbj-36" value="&lt;font style=&quot;font-size: 13px;&quot;&gt;Данные о количестве студентов&lt;/font&gt;" style="edgeLabel;html=1;align=center;verticalAlign=middle;resizable=0;points=[];" parent="CtTwP5JheZMf3GZqyAbj-34" vertex="1" connectable="0">
          <mxGeometry x="0.3561" y="4" relative="1" as="geometry">
            <mxPoint x="-22" y="28" as="offset" />
          </mxGeometry>
        </mxCell>
        <mxCell id="CtTwP5JheZMf3GZqyAbj-45" value="" style="endArrow=classic;html=1;rounded=0;entryX=0.5;entryY=0;entryDx=0;entryDy=0;exitX=0.25;exitY=1;exitDx=0;exitDy=0;" parent="WIyWlLk6GJQsqaUBKTNV-1" source="2Y-ausqchybXp7Ne50L6-1" target="CtTwP5JheZMf3GZqyAbj-19" edge="1">
          <mxGeometry width="50" height="50" relative="1" as="geometry">
            <mxPoint x="640" y="150" as="sourcePoint" />
            <mxPoint x="730" y="230" as="targetPoint" />
            <Array as="points">
              <mxPoint x="590" y="270" />
            </Array>
          </mxGeometry>
        </mxCell>
        <mxCell id="CtTwP5JheZMf3GZqyAbj-49" value="&lt;span style=&quot;font-size: 14px;&quot;&gt;Запрос к lab1.&lt;/span&gt;&lt;div style=&quot;text-align: left;&quot;&gt;&lt;font style=&quot;font-size: 14px;&quot;&gt;Необходимые параметры:&lt;/font&gt;&lt;/div&gt;&lt;div style=&quot;text-align: left;&quot;&gt;&lt;font style=&quot;font-size: 14px;&quot;&gt;1) &lt;span style=&quot;background-color: rgb(255, 255, 255);&quot;&gt;&lt;font face=&quot;sans-serif&quot; color=&quot;#3b4151&quot;&gt;&lt;span style=&quot;text-wrap-mode: wrap;&quot;&gt;&lt;b style=&quot;&quot;&gt;term -&amp;nbsp;&lt;/b&gt;&lt;/span&gt;&lt;/font&gt;&lt;span style=&quot;color: rgb(59, 65, 81); font-family: sans-serif; text-wrap-mode: wrap;&quot;&gt;Термин для поиска в описании курса&lt;/span&gt;&lt;/span&gt;&lt;/font&gt;&lt;/div&gt;&lt;div style=&quot;text-align: left;&quot;&gt;&lt;font style=&quot;font-size: 14px;&quot;&gt;&lt;span style=&quot;background-color: rgb(255, 255, 255);&quot;&gt;&lt;span style=&quot;color: rgb(59, 65, 81); font-family: sans-serif; text-wrap-mode: wrap;&quot;&gt;2)&lt;b&gt; start_date - &lt;/b&gt;начало периода&lt;/span&gt;&lt;/span&gt;&lt;/font&gt;&lt;/div&gt;&lt;div style=&quot;text-align: left;&quot;&gt;&lt;font style=&quot;font-size: 14px;&quot;&gt;&lt;span style=&quot;background-color: rgb(255, 255, 255);&quot;&gt;&lt;span style=&quot;color: rgb(59, 65, 81); font-family: sans-serif; text-wrap-mode: wrap;&quot;&gt;3) &lt;b&gt;end_date &lt;/b&gt;- конец периода&lt;/span&gt;&lt;/span&gt;&lt;/font&gt;&lt;/div&gt;" style="edgeLabel;html=1;align=center;verticalAlign=middle;resizable=0;points=[];" parent="CtTwP5JheZMf3GZqyAbj-45" vertex="1" connectable="0">
          <mxGeometry x="0.1386" y="2" relative="1" as="geometry">
            <mxPoint x="-22" y="9" as="offset" />
          </mxGeometry>
        </mxCell>
        <mxCell id="CtTwP5JheZMf3GZqyAbj-46" value="" style="endArrow=classic;html=1;rounded=0;entryX=0.5;entryY=0;entryDx=0;entryDy=0;exitX=0.5;exitY=1;exitDx=0;exitDy=0;" parent="WIyWlLk6GJQsqaUBKTNV-1" source="2Y-ausqchybXp7Ne50L6-1" target="CtTwP5JheZMf3GZqyAbj-20" edge="1">
          <mxGeometry width="50" height="50" relative="1" as="geometry">
            <mxPoint x="690" y="220" as="sourcePoint" />
            <mxPoint x="870" y="250" as="targetPoint" />
          </mxGeometry>
        </mxCell>
        <mxCell id="CtTwP5JheZMf3GZqyAbj-50" value="&lt;font style=&quot;font-size: 15px;&quot;&gt;запрос к lab2&lt;/font&gt;&lt;div style=&quot;text-align: left;&quot;&gt;&lt;span style=&quot;font-size: 15px;&quot;&gt;Необходимые параметры:&lt;/span&gt;&lt;/div&gt;&lt;div style=&quot;text-align: left;&quot;&gt;&lt;span style=&quot;font-size: 15px;&quot;&gt;1) &lt;b&gt;course_name&lt;/b&gt; - имя курса&lt;/span&gt;&lt;/div&gt;&lt;div style=&quot;text-align: left;&quot;&gt;&lt;span style=&quot;font-size: 15px;&quot;&gt;2) &lt;b&gt;semester&lt;/b&gt; - номер семестра&lt;/span&gt;&lt;/div&gt;&lt;div style=&quot;text-align: left;&quot;&gt;&lt;span style=&quot;font-size: 15px;&quot;&gt;3) &lt;b&gt;year &lt;/b&gt;- год обучения&lt;/span&gt;&lt;/div&gt;" style="edgeLabel;html=1;align=center;verticalAlign=middle;resizable=0;points=[];" parent="CtTwP5JheZMf3GZqyAbj-46" vertex="1" connectable="0">
          <mxGeometry x="0.0924" y="-2" relative="1" as="geometry">
            <mxPoint as="offset" />
          </mxGeometry>
        </mxCell>
        <mxCell id="CtTwP5JheZMf3GZqyAbj-47" value="" style="endArrow=classic;html=1;rounded=0;entryX=0.5;entryY=0;entryDx=0;entryDy=0;exitX=1;exitY=1;exitDx=0;exitDy=0;" parent="WIyWlLk6GJQsqaUBKTNV-1" source="2Y-ausqchybXp7Ne50L6-1" target="CtTwP5JheZMf3GZqyAbj-21" edge="1">
          <mxGeometry width="50" height="50" relative="1" as="geometry">
            <mxPoint x="850" y="160" as="sourcePoint" />
            <mxPoint x="1145.073593128801" y="417.57359312880135" as="targetPoint" />
          </mxGeometry>
        </mxCell>
        <mxCell id="CtTwP5JheZMf3GZqyAbj-51" value="&lt;font style=&quot;font-size: 15px;&quot;&gt;запрос к lab3&lt;/font&gt;&lt;div style=&quot;text-align: left;&quot;&gt;&lt;font style=&quot;font-size: 15px;&quot;&gt;Необходимые параметры:&lt;/font&gt;&lt;/div&gt;&lt;div style=&quot;text-align: left;&quot;&gt;&lt;font style=&quot;font-size: 15px;&quot;&gt;1) &lt;b&gt;group_name&lt;/b&gt; - имя группы&lt;/font&gt;&lt;/div&gt;" style="edgeLabel;html=1;align=center;verticalAlign=middle;resizable=0;points=[];" parent="CtTwP5JheZMf3GZqyAbj-47" vertex="1" connectable="0">
          <mxGeometry x="-0.0295" y="3" relative="1" as="geometry">
            <mxPoint as="offset" />
          </mxGeometry>
        </mxCell>
        <mxCell id="CtTwP5JheZMf3GZqyAbj-54" value="&lt;font style=&quot;font-size: 17px;&quot;&gt;аутенфикация (JWT)&lt;/font&gt;" style="ellipse;whiteSpace=wrap;html=1;aspect=fixed;" parent="WIyWlLk6GJQsqaUBKTNV-1" vertex="1">
          <mxGeometry x="1210" y="60" width="170" height="170" as="geometry" />
        </mxCell>
        <mxCell id="CtTwP5JheZMf3GZqyAbj-55" value="" style="endArrow=classic;html=1;rounded=0;entryX=0;entryY=0.5;entryDx=0;entryDy=0;exitX=1;exitY=0.25;exitDx=0;exitDy=0;" parent="WIyWlLk6GJQsqaUBKTNV-1" source="2Y-ausqchybXp7Ne50L6-1" target="CtTwP5JheZMf3GZqyAbj-54" edge="1">
          <mxGeometry width="50" height="50" relative="1" as="geometry">
            <mxPoint x="1300" y="-460" as="sourcePoint" />
            <mxPoint x="520" y="-230" as="targetPoint" />
          </mxGeometry>
        </mxCell>
        <mxCell id="CtTwP5JheZMf3GZqyAbj-60" value="&lt;font style=&quot;font-size: 15px;&quot;&gt;Логин и пароли пользователя&lt;/font&gt;" style="edgeLabel;html=1;align=center;verticalAlign=middle;resizable=0;points=[];" parent="CtTwP5JheZMf3GZqyAbj-55" vertex="1" connectable="0">
          <mxGeometry x="-0.0762" y="1" relative="1" as="geometry">
            <mxPoint y="1" as="offset" />
          </mxGeometry>
        </mxCell>
        <object placeholders="1" c4Name="MongoDB" c4Type="Container" c4Technology="MongoBD Docker Container" c4Description="хранит структуру: вуз-институт-кафедра" label="&lt;font style=&quot;font-size: 16px&quot;&gt;&lt;b&gt;%c4Name%&lt;/b&gt;&lt;/font&gt;&lt;div&gt;[%c4Type%:&amp;nbsp;%c4Technology%]&lt;/div&gt;&lt;br&gt;&lt;div&gt;&lt;font style=&quot;font-size: 11px&quot;&gt;&lt;font color=&quot;#E6E6E6&quot;&gt;%c4Description%&lt;/font&gt;&lt;/div&gt;" id="CtTwP5JheZMf3GZqyAbj-63">
          <mxCell style="shape=cylinder3;size=15;whiteSpace=wrap;html=1;boundedLbl=1;rounded=0;labelBackgroundColor=none;fillColor=#23A2D9;fontSize=12;fontColor=#ffffff;align=center;strokeColor=#0E7DAD;metaEdit=1;points=[[0.5,0,0],[1,0.25,0],[1,0.5,0],[1,0.75,0],[0.5,1,0],[0,0.75,0],[0,0.5,0],[0,0.25,0]];resizable=0;" parent="WIyWlLk6GJQsqaUBKTNV-1" vertex="1">
            <mxGeometry x="1090" y="2600" width="240" height="120" as="geometry" />
          </mxCell>
        </object>
        <object placeholders="1" c4Name="Redis" c4Type="Container" c4Technology="Redis Docker Container" c4Description="хранит данные о студентах" label="&lt;font style=&quot;font-size: 16px&quot;&gt;&lt;b&gt;%c4Name%&lt;/b&gt;&lt;/font&gt;&lt;div&gt;[%c4Type%:&amp;nbsp;%c4Technology%]&lt;/div&gt;&lt;br&gt;&lt;div&gt;&lt;font style=&quot;font-size: 11px&quot;&gt;&lt;font color=&quot;#E6E6E6&quot;&gt;%c4Description%&lt;/font&gt;&lt;/div&gt;" id="CtTwP5JheZMf3GZqyAbj-64">
          <mxCell style="shape=cylinder3;size=15;whiteSpace=wrap;html=1;boundedLbl=1;rounded=0;labelBackgroundColor=none;fillColor=#23A2D9;fontSize=12;fontColor=#ffffff;align=center;strokeColor=#0E7DAD;metaEdit=1;points=[[0.5,0,0],[1,0.25,0],[1,0.5,0],[1,0.75,0],[0.5,1,0],[0,0.75,0],[0,0.5,0],[0,0.25,0]];resizable=0;" parent="WIyWlLk6GJQsqaUBKTNV-1" vertex="1">
            <mxGeometry x="1090" y="2780" width="240" height="120" as="geometry" />
          </mxCell>
        </object>
        <object placeholders="1" c4Name="PostgreSQL" c4Type="Container" c4Technology="postgres docker container" c4Description="хранит все данные о вузах кроме текстов лекций" label="&lt;font style=&quot;font-size: 16px&quot;&gt;&lt;b&gt;%c4Name%&lt;/b&gt;&lt;/font&gt;&lt;div&gt;[%c4Type%:&amp;nbsp;%c4Technology%]&lt;/div&gt;&lt;br&gt;&lt;div&gt;&lt;font style=&quot;font-size: 11px&quot;&gt;&lt;font color=&quot;#E6E6E6&quot;&gt;%c4Description%&lt;/font&gt;&lt;/div&gt;" id="CtTwP5JheZMf3GZqyAbj-65">
          <mxCell style="shape=cylinder3;size=15;whiteSpace=wrap;html=1;boundedLbl=1;rounded=0;labelBackgroundColor=none;fillColor=#23A2D9;fontSize=12;fontColor=#ffffff;align=center;strokeColor=#0E7DAD;metaEdit=1;points=[[0.5,0,0],[1,0.25,0],[1,0.5,0],[1,0.75,0],[0.5,1,0],[0,0.75,0],[0,0.5,0],[0,0.25,0]];resizable=0;" parent="WIyWlLk6GJQsqaUBKTNV-1" vertex="1">
            <mxGeometry x="1090" y="2410" width="240" height="120" as="geometry" />
          </mxCell>
        </object>
        <mxCell id="CtTwP5JheZMf3GZqyAbj-66" value="&lt;ul style=&quot;transition: opacity 0.2s ease-in-out, color 0.2s ease-in-out, text-decoration 0.2s ease-in-out, background-color 0.2s ease-in-out, -webkit-text-decoration 0.2s ease-in-out; quotes: &amp;quot;«&amp;quot; &amp;quot;»&amp;quot;; padding-inline-start: 32px; margin-top: 32px; color: rgb(221, 221, 221); font-family: -apple-system, BlinkMacSystemFont, Arial, sans-serif; font-size: 16px; font-style: normal; font-variant-ligatures: normal; font-variant-caps: normal; font-weight: 400; letter-spacing: normal; orphans: 2; text-align: start; text-indent: 0px; text-transform: none; widows: 2; word-spacing: 0px; -webkit-text-stroke-width: 0px; white-space: normal; background-color: rgb(23, 23, 23); text-decoration-thickness: initial; text-decoration-style: initial; text-decoration-color: initial;&quot;&gt;&lt;li style=&quot;transition: opacity 0.2s ease-in-out, color 0.2s ease-in-out, text-decoration 0.2s ease-in-out, background-color 0.2s ease-in-out, -webkit-text-decoration 0.2s ease-in-out; quotes: &amp;quot;«&amp;quot; &amp;quot;»&amp;quot;; line-height: 1.5rem; margin: 0px 0px 6px; padding: 0px;&quot;&gt;&lt;p style=&quot;transition: opacity 0.2s ease-in-out, color 0.2s ease-in-out, text-decoration 0.2s ease-in-out, background-color 0.2s ease-in-out, -webkit-text-decoration 0.2s ease-in-out; quotes: &amp;quot;«&amp;quot; &amp;quot;»&amp;quot;; margin: 0px; padding: 0px; font-size: 1rem; line-height: 1.5rem;&quot;&gt;&lt;strong style=&quot;transition: opacity 0.2s ease-in-out, color 0.2s ease-in-out, text-decoration 0.2s ease-in-out, background-color 0.2s ease-in-out, -webkit-text-decoration 0.2s ease-in-out; font-weight: bolder; quotes: &amp;quot;«&amp;quot; &amp;quot;»&amp;quot;; -webkit-font-smoothing: antialiased;&quot;&gt;C&lt;/strong&gt;ontext - Контекст,&amp;nbsp;&lt;/p&gt;&lt;/li&gt;&lt;li style=&quot;transition: opacity 0.2s ease-in-out, color 0.2s ease-in-out, text-decoration 0.2s ease-in-out, background-color 0.2s ease-in-out, -webkit-text-decoration 0.2s ease-in-out; quotes: &amp;quot;«&amp;quot; &amp;quot;»&amp;quot;; line-height: 1.5rem; margin: 12px 0px 0px; padding: 0px;&quot;&gt;&lt;p style=&quot;transition: opacity 0.2s ease-in-out, color 0.2s ease-in-out, text-decoration 0.2s ease-in-out, background-color 0.2s ease-in-out, -webkit-text-decoration 0.2s ease-in-out; quotes: &amp;quot;«&amp;quot; &amp;quot;»&amp;quot;; margin: 0px; padding: 0px; font-size: 1rem; line-height: 1.5rem;&quot;&gt;&lt;strong style=&quot;transition: opacity 0.2s ease-in-out, color 0.2s ease-in-out, text-decoration 0.2s ease-in-out, background-color 0.2s ease-in-out, -webkit-text-decoration 0.2s ease-in-out; font-weight: bolder; quotes: &amp;quot;«&amp;quot; &amp;quot;»&amp;quot;; -webkit-font-smoothing: antialiased;&quot;&gt;C&lt;/strong&gt;ontainers - Контейнеры,&lt;/p&gt;&lt;/li&gt;&lt;li style=&quot;transition: opacity 0.2s ease-in-out, color 0.2s ease-in-out, text-decoration 0.2s ease-in-out, background-color 0.2s ease-in-out, -webkit-text-decoration 0.2s ease-in-out; quotes: &amp;quot;«&amp;quot; &amp;quot;»&amp;quot;; line-height: 1.5rem; margin: 12px 0px 0px; padding: 0px;&quot;&gt;&lt;p style=&quot;transition: opacity 0.2s ease-in-out, color 0.2s ease-in-out, text-decoration 0.2s ease-in-out, background-color 0.2s ease-in-out, -webkit-text-decoration 0.2s ease-in-out; quotes: &amp;quot;«&amp;quot; &amp;quot;»&amp;quot;; margin: 0px; padding: 0px; font-size: 1rem; line-height: 1.5rem;&quot;&gt;&lt;strong style=&quot;transition: opacity 0.2s ease-in-out, color 0.2s ease-in-out, text-decoration 0.2s ease-in-out, background-color 0.2s ease-in-out, -webkit-text-decoration 0.2s ease-in-out; font-weight: bolder; quotes: &amp;quot;«&amp;quot; &amp;quot;»&amp;quot;; -webkit-font-smoothing: antialiased;&quot;&gt;C&lt;/strong&gt;omponents - Компоненты,&lt;/p&gt;&lt;/li&gt;&lt;/ul&gt;" style="text;whiteSpace=wrap;html=1;" parent="WIyWlLk6GJQsqaUBKTNV-1" vertex="1">
          <mxGeometry x="220" y="1060" width="270" height="170" as="geometry" />
        </mxCell>
        <object placeholders="1" c4Name="Neo4j" c4Type="Container" c4Technology="Neo4j Docker Container" c4Description="хранит связи между студентами, группами, лекциями и посещениями " label="&lt;font style=&quot;font-size: 16px&quot;&gt;&lt;b&gt;%c4Name%&lt;/b&gt;&lt;/font&gt;&lt;div&gt;[%c4Type%:&amp;nbsp;%c4Technology%]&lt;/div&gt;&lt;br&gt;&lt;div&gt;&lt;font style=&quot;font-size: 11px&quot;&gt;&lt;font color=&quot;#E6E6E6&quot;&gt;%c4Description%&lt;/font&gt;&lt;/div&gt;" id="CtTwP5JheZMf3GZqyAbj-67">
          <mxCell style="shape=cylinder3;size=15;whiteSpace=wrap;html=1;boundedLbl=1;rounded=0;labelBackgroundColor=none;fillColor=#23A2D9;fontSize=12;fontColor=#ffffff;align=center;strokeColor=#0E7DAD;metaEdit=1;points=[[0.5,0,0],[1,0.25,0],[1,0.5,0],[1,0.75,0],[0.5,1,0],[0,0.75,0],[0,0.5,0],[0,0.25,0]];resizable=0;" parent="WIyWlLk6GJQsqaUBKTNV-1" vertex="1">
            <mxGeometry x="1090" y="2950" width="240" height="120" as="geometry" />
          </mxCell>
        </object>
        <object placeholders="1" c4Name="Elasticsearch" c4Type="Container" c4Technology="Elasticsearch Docker Container" c4Description="хранит материалы лекций" label="&lt;font style=&quot;font-size: 16px&quot;&gt;&lt;b&gt;%c4Name%&lt;/b&gt;&lt;/font&gt;&lt;div&gt;[%c4Type%:&amp;nbsp;%c4Technology%]&lt;/div&gt;&lt;br&gt;&lt;div&gt;&lt;font style=&quot;font-size: 11px&quot;&gt;&lt;font color=&quot;#E6E6E6&quot;&gt;%c4Description%&lt;/font&gt;&lt;/div&gt;" id="CtTwP5JheZMf3GZqyAbj-68">
          <mxCell style="shape=cylinder3;size=15;whiteSpace=wrap;html=1;boundedLbl=1;rounded=0;labelBackgroundColor=none;fillColor=#23A2D9;fontSize=12;fontColor=#ffffff;align=center;strokeColor=#0E7DAD;metaEdit=1;points=[[0.5,0,0],[1,0.25,0],[1,0.5,0],[1,0.75,0],[0.5,1,0],[0,0.75,0],[0,0.5,0],[0,0.25,0]];resizable=0;" parent="WIyWlLk6GJQsqaUBKTNV-1" vertex="1">
            <mxGeometry x="1090" y="3100" width="240" height="120" as="geometry" />
          </mxCell>
        </object>
        <mxCell id="2Y-ausqchybXp7Ne50L6-1" value="&lt;font style=&quot;font-size: 18px;&quot;&gt;Пользователь&lt;/font&gt;" style="rounded=0;whiteSpace=wrap;html=1;" vertex="1" parent="WIyWlLk6GJQsqaUBKTNV-1">
          <mxGeometry x="730" y="100" width="190" height="110" as="geometry" />
        </mxCell>
        <mxCell id="2Y-ausqchybXp7Ne50L6-2" value="" style="endArrow=classic;html=1;rounded=0;exitX=0;exitY=1;exitDx=0;exitDy=0;entryX=1;entryY=0.75;entryDx=0;entryDy=0;" edge="1" parent="WIyWlLk6GJQsqaUBKTNV-1" source="CtTwP5JheZMf3GZqyAbj-54" target="2Y-ausqchybXp7Ne50L6-1">
          <mxGeometry width="50" height="50" relative="1" as="geometry">
            <mxPoint x="1130" y="20" as="sourcePoint" />
            <mxPoint x="1180" y="-30" as="targetPoint" />
          </mxGeometry>
        </mxCell>
        <mxCell id="2Y-ausqchybXp7Ne50L6-8" value="&lt;font style=&quot;font-size: 15px;&quot;&gt;data_center&lt;/font&gt;" style="ellipse;whiteSpace=wrap;html=1;aspect=fixed;" vertex="1" parent="WIyWlLk6GJQsqaUBKTNV-1">
          <mxGeometry x="120" y="730" width="120" height="120" as="geometry" />
        </mxCell>
        <object placeholders="1" c4Name="Пользователь" c4Type="User" c4Description="Тот, кто отправляет запросы для отчета" label="&lt;font style=&quot;font-size: 16px&quot;&gt;&lt;b&gt;%c4Name%&lt;/b&gt;&lt;/font&gt;&lt;div&gt;[%c4Type%]&lt;/div&gt;&lt;br&gt;&lt;div&gt;&lt;font style=&quot;font-size: 11px&quot;&gt;&lt;font color=&quot;#cccccc&quot;&gt;%c4Description%&lt;/font&gt;&lt;/div&gt;" id="2Y-ausqchybXp7Ne50L6-10">
          <mxCell style="html=1;fontSize=11;dashed=0;whiteSpace=wrap;fillColor=#083F75;strokeColor=#06315C;fontColor=#ffffff;shape=mxgraph.c4.person2;align=center;metaEdit=1;points=[[0.5,0,0],[1,0.5,0],[1,0.75,0],[0.75,1,0],[0.5,1,0],[0.25,1,0],[0,0.75,0],[0,0.5,0]];resizable=0;" vertex="1" parent="WIyWlLk6GJQsqaUBKTNV-1">
            <mxGeometry x="50" y="1430" width="200" height="180" as="geometry" />
          </mxCell>
        </object>
        <object placeholders="1" c4Name="Вузовская Система" c4Type="lab1,lab2,lab3,api_gateway" c4Description="Система с данными о вузах" label="&lt;font style=&quot;font-size: 16px&quot;&gt;&lt;b&gt;%c4Name%&lt;/b&gt;&lt;/font&gt;&lt;div&gt;[%c4Type%]&lt;/div&gt;&lt;br&gt;&lt;div&gt;&lt;font style=&quot;font-size: 11px&quot;&gt;&lt;font color=&quot;#cccccc&quot;&gt;%c4Description%&lt;/font&gt;&lt;/div&gt;" id="2Y-ausqchybXp7Ne50L6-11">
          <mxCell style="rounded=1;whiteSpace=wrap;html=1;labelBackgroundColor=none;fillColor=#1061B0;fontColor=#ffffff;align=center;arcSize=10;strokeColor=#0D5091;metaEdit=1;resizable=0;points=[[0.25,0,0],[0.5,0,0],[0.75,0,0],[1,0.25,0],[1,0.5,0],[1,0.75,0],[0.75,1,0],[0.5,1,0],[0.25,1,0],[0,0.75,0],[0,0.5,0],[0,0.25,0]];" vertex="1" parent="WIyWlLk6GJQsqaUBKTNV-1">
            <mxGeometry x="470" y="1500" width="240" height="120" as="geometry" />
          </mxCell>
        </object>
        <object placeholders="1" c4Name="data_center" c4Type="Software System" c4Description="генератор данных" label="&lt;font style=&quot;font-size: 16px&quot;&gt;&lt;b&gt;%c4Name%&lt;/b&gt;&lt;/font&gt;&lt;div&gt;[%c4Type%]&lt;/div&gt;&lt;br&gt;&lt;div&gt;&lt;font style=&quot;font-size: 11px&quot;&gt;&lt;font color=&quot;#cccccc&quot;&gt;%c4Description%&lt;/font&gt;&lt;/div&gt;" id="2Y-ausqchybXp7Ne50L6-12">
          <mxCell style="rounded=1;whiteSpace=wrap;html=1;labelBackgroundColor=none;fillColor=#1061B0;fontColor=#ffffff;align=center;arcSize=10;strokeColor=#0D5091;metaEdit=1;resizable=0;points=[[0.25,0,0],[0.5,0,0],[0.75,0,0],[1,0.25,0],[1,0.5,0],[1,0.75,0],[0.75,1,0],[0.5,1,0],[0.25,1,0],[0,0.75,0],[0,0.5,0],[0,0.25,0]];" vertex="1" parent="WIyWlLk6GJQsqaUBKTNV-1">
            <mxGeometry x="961" y="1490" width="240" height="120" as="geometry" />
          </mxCell>
        </object>
        <object placeholders="1" c4Type="Relationship" c4Description="использует" label="&lt;div style=&quot;text-align: left&quot;&gt;&lt;div style=&quot;text-align: center&quot;&gt;&lt;b&gt;%c4Description%&lt;/b&gt;&lt;/div&gt;" id="2Y-ausqchybXp7Ne50L6-13">
          <mxCell style="endArrow=blockThin;html=1;fontSize=10;fontColor=#404040;strokeWidth=1;endFill=1;strokeColor=#828282;elbow=vertical;metaEdit=1;endSize=14;startSize=14;jumpStyle=arc;jumpSize=16;rounded=0;edgeStyle=orthogonalEdgeStyle;entryX=0;entryY=0.5;entryDx=0;entryDy=0;entryPerimeter=0;exitX=1;exitY=0.75;exitDx=0;exitDy=0;exitPerimeter=0;" edge="1" parent="WIyWlLk6GJQsqaUBKTNV-1" source="2Y-ausqchybXp7Ne50L6-10" target="2Y-ausqchybXp7Ne50L6-11">
            <mxGeometry x="-0.0014" width="240" relative="1" as="geometry">
              <mxPoint x="270" y="1560" as="sourcePoint" />
              <mxPoint x="510" y="1560" as="targetPoint" />
              <mxPoint as="offset" />
            </mxGeometry>
          </mxCell>
        </object>
        <object placeholders="1" c4Type="Relationship" c4Description="генерирует и инициализирует данные" label="&lt;div style=&quot;text-align: left&quot;&gt;&lt;div style=&quot;text-align: center&quot;&gt;&lt;b&gt;%c4Description%&lt;/b&gt;&lt;/div&gt;" id="2Y-ausqchybXp7Ne50L6-15">
          <mxCell style="endArrow=blockThin;html=1;fontSize=10;fontColor=#404040;strokeWidth=1;endFill=1;strokeColor=#828282;elbow=vertical;metaEdit=1;endSize=14;startSize=14;jumpStyle=arc;jumpSize=16;rounded=0;edgeStyle=orthogonalEdgeStyle;exitX=-0.013;exitY=0.583;exitDx=0;exitDy=0;exitPerimeter=0;entryX=1;entryY=0.5;entryDx=0;entryDy=0;entryPerimeter=0;" edge="1" parent="WIyWlLk6GJQsqaUBKTNV-1" source="2Y-ausqchybXp7Ne50L6-12" target="2Y-ausqchybXp7Ne50L6-11">
            <mxGeometry width="240" relative="1" as="geometry">
              <mxPoint x="400" y="1720" as="sourcePoint" />
              <mxPoint x="640" y="1720" as="targetPoint" />
            </mxGeometry>
          </mxCell>
        </object>
        <object placeholders="1" c4Name="Пользователь" c4Type="User" c4Description="Тот, кто отправляет запросы для отчета" label="&lt;font style=&quot;font-size: 16px&quot;&gt;&lt;b&gt;%c4Name%&lt;/b&gt;&lt;/font&gt;&lt;div&gt;[%c4Type%]&lt;/div&gt;&lt;br&gt;&lt;div&gt;&lt;font style=&quot;font-size: 11px&quot;&gt;&lt;font color=&quot;#cccccc&quot;&gt;%c4Description%&lt;/font&gt;&lt;/div&gt;" id="2Y-ausqchybXp7Ne50L6-16">
          <mxCell style="html=1;fontSize=11;dashed=0;whiteSpace=wrap;fillColor=#083F75;strokeColor=#06315C;fontColor=#ffffff;shape=mxgraph.c4.person2;align=center;metaEdit=1;points=[[0.5,0,0],[1,0.5,0],[1,0.75,0],[0.75,1,0],[0.5,1,0],[0.25,1,0],[0,0.75,0],[0,0.5,0]];resizable=0;" vertex="1" parent="WIyWlLk6GJQsqaUBKTNV-1">
            <mxGeometry x="-100" y="1780" width="200" height="180" as="geometry" />
          </mxCell>
        </object>
        <object placeholders="1" c4Name="data_center" c4Type="Python Script" c4Description="генератор данных" label="&lt;font style=&quot;font-size: 16px&quot;&gt;&lt;b&gt;%c4Name%&lt;/b&gt;&lt;/font&gt;&lt;div&gt;[%c4Type%]&lt;/div&gt;&lt;br&gt;&lt;div&gt;&lt;font style=&quot;font-size: 11px&quot;&gt;&lt;font color=&quot;#cccccc&quot;&gt;%c4Description%&lt;/font&gt;&lt;/div&gt;" id="2Y-ausqchybXp7Ne50L6-18">
          <mxCell style="rounded=1;whiteSpace=wrap;html=1;labelBackgroundColor=none;fillColor=#1061B0;fontColor=#ffffff;align=center;arcSize=10;strokeColor=#0D5091;metaEdit=1;resizable=0;points=[[0.25,0,0],[0.5,0,0],[0.75,0,0],[1,0.25,0],[1,0.5,0],[1,0.75,0],[0.75,1,0],[0.5,1,0],[0.25,1,0],[0,0.75,0],[0,0.5,0],[0,0.25,0]];" vertex="1" parent="WIyWlLk6GJQsqaUBKTNV-1">
            <mxGeometry x="850" y="1860" width="240" height="120" as="geometry" />
          </mxCell>
        </object>
        <object placeholders="1" c4Type="Relationship" c4Description="использует" label="&lt;div style=&quot;text-align: left&quot;&gt;&lt;div style=&quot;text-align: center&quot;&gt;&lt;b&gt;%c4Description%&lt;/b&gt;&lt;/div&gt;" id="2Y-ausqchybXp7Ne50L6-19">
          <mxCell style="endArrow=blockThin;html=1;fontSize=10;fontColor=#404040;strokeWidth=1;endFill=1;strokeColor=#828282;elbow=vertical;metaEdit=1;endSize=14;startSize=14;jumpStyle=arc;jumpSize=16;rounded=0;edgeStyle=orthogonalEdgeStyle;entryX=0;entryY=0.5;entryDx=0;entryDy=0;entryPerimeter=0;exitX=1;exitY=0.75;exitDx=0;exitDy=0;exitPerimeter=0;" edge="1" parent="WIyWlLk6GJQsqaUBKTNV-1" source="2Y-ausqchybXp7Ne50L6-16" target="2Y-ausqchybXp7Ne50L6-30">
            <mxGeometry x="-0.0014" width="240" relative="1" as="geometry">
              <mxPoint x="440" y="1900" as="sourcePoint" />
              <mxPoint x="280" y="1920" as="targetPoint" />
              <mxPoint as="offset" />
            </mxGeometry>
          </mxCell>
        </object>
        <object placeholders="1" c4Type="Relationship" c4Description="генерирует и инициализирует данные" label="&lt;div style=&quot;text-align: left&quot;&gt;&lt;div style=&quot;text-align: center&quot;&gt;&lt;b&gt;%c4Description%&lt;/b&gt;&lt;/div&gt;" id="2Y-ausqchybXp7Ne50L6-20">
          <mxCell style="endArrow=blockThin;html=1;fontSize=10;fontColor=#404040;strokeWidth=1;endFill=1;strokeColor=#828282;elbow=vertical;metaEdit=1;endSize=14;startSize=14;jumpStyle=arc;jumpSize=16;rounded=0;edgeStyle=orthogonalEdgeStyle;exitX=0.5;exitY=1;exitDx=0;exitDy=0;exitPerimeter=0;entryX=0.5;entryY=0;entryDx=0;entryDy=0;entryPerimeter=0;" edge="1" parent="WIyWlLk6GJQsqaUBKTNV-1" source="2Y-ausqchybXp7Ne50L6-18" target="2Y-ausqchybXp7Ne50L6-23">
            <mxGeometry width="240" relative="1" as="geometry">
              <mxPoint x="570" y="2060" as="sourcePoint" />
              <mxPoint x="995.5" y="1930" as="targetPoint" />
            </mxGeometry>
          </mxCell>
        </object>
        <object placeholders="1" c4Name="Сервисы lab1, lab2, lab3" c4Technology="fastAPI python" c4Description="Микросервисы, реализующие основную логику для каждого отчета. Они изолированы друг от друга и общаются только с API Gateway и нужными им базами данных." label="&lt;font style=&quot;font-size: 16px&quot;&gt;&lt;b&gt;%c4Name%&lt;/b&gt;&lt;/font&gt;&lt;div&gt;[%c4Technology%]&lt;/div&gt;&lt;br&gt;&lt;div&gt;&lt;font style=&quot;font-size: 11px&quot;&gt;&lt;font color=&quot;#E6E6E6&quot;&gt;%c4Description%&lt;/font&gt;&lt;/div&gt;" id="2Y-ausqchybXp7Ne50L6-21">
          <mxCell style="rounded=1;whiteSpace=wrap;html=1;fontSize=11;labelBackgroundColor=none;fillColor=#23A2D9;fontColor=#ffffff;align=center;arcSize=10;strokeColor=#0E7DAD;metaEdit=1;resizable=0;points=[[0.25,0,0],[0.5,0,0],[0.75,0,0],[1,0.25,0],[1,0.5,0],[1,0.75,0],[0.75,1,0],[0.5,1,0],[0.25,1,0],[0,0.75,0],[0,0.5,0],[0,0.25,0]];" vertex="1" parent="WIyWlLk6GJQsqaUBKTNV-1">
            <mxGeometry x="190" y="2050" width="240" height="120" as="geometry" />
          </mxCell>
        </object>
        <object placeholders="1" c4Type="Relationship" c4Description="взаимодействует" label="&lt;div style=&quot;text-align: left&quot;&gt;&lt;div style=&quot;text-align: center&quot;&gt;&lt;b&gt;%c4Description%&lt;/b&gt;&lt;/div&gt;" id="2Y-ausqchybXp7Ne50L6-22">
          <mxCell style="endArrow=blockThin;html=1;fontSize=10;fontColor=#404040;strokeWidth=1;endFill=1;strokeColor=#828282;elbow=vertical;metaEdit=1;endSize=14;startSize=14;jumpStyle=arc;jumpSize=16;rounded=0;edgeStyle=orthogonalEdgeStyle;exitX=0.5;exitY=1;exitDx=0;exitDy=0;exitPerimeter=0;entryX=0;entryY=0.5;entryDx=0;entryDy=0;entryPerimeter=0;" edge="1" parent="WIyWlLk6GJQsqaUBKTNV-1" source="2Y-ausqchybXp7Ne50L6-30" target="2Y-ausqchybXp7Ne50L6-21">
            <mxGeometry width="240" relative="1" as="geometry">
              <mxPoint x="520" y="1920" as="sourcePoint" />
              <mxPoint x="700" y="2060" as="targetPoint" />
            </mxGeometry>
          </mxCell>
        </object>
        <object placeholders="1" c4Name="Базы данных" c4Type="Container" c4Technology="postgres,redis,mongodb,neo4j,elasticsearch" c4Description="Базы данных" label="&lt;font style=&quot;font-size: 16px&quot;&gt;&lt;b&gt;%c4Name%&lt;/b&gt;&lt;/font&gt;&lt;div&gt;[%c4Type%:&amp;nbsp;%c4Technology%]&lt;/div&gt;&lt;br&gt;&lt;div&gt;&lt;font style=&quot;font-size: 11px&quot;&gt;&lt;font color=&quot;#E6E6E6&quot;&gt;%c4Description%&lt;/font&gt;&lt;/div&gt;" id="2Y-ausqchybXp7Ne50L6-23">
          <mxCell style="shape=cylinder3;size=15;whiteSpace=wrap;html=1;boundedLbl=1;rounded=0;labelBackgroundColor=none;fillColor=#23A2D9;fontSize=12;fontColor=#ffffff;align=center;strokeColor=#0E7DAD;metaEdit=1;points=[[0.5,0,0],[1,0.25,0],[1,0.5,0],[1,0.75,0],[0.5,1,0],[0,0.75,0],[0,0.5,0],[0,0.25,0]];resizable=0;" vertex="1" parent="WIyWlLk6GJQsqaUBKTNV-1">
            <mxGeometry x="560" y="2050" width="240" height="120" as="geometry" />
          </mxCell>
        </object>
        <object placeholders="1" c4Type="Relationship" c4Description="Запрашивает" label="&lt;div style=&quot;text-align: left&quot;&gt;&lt;div style=&quot;text-align: center&quot;&gt;&lt;b&gt;%c4Description%&lt;/b&gt;&lt;/div&gt;" id="2Y-ausqchybXp7Ne50L6-24">
          <mxCell style="endArrow=blockThin;html=1;fontSize=10;fontColor=#404040;strokeWidth=1;endFill=1;strokeColor=#828282;elbow=vertical;metaEdit=1;endSize=14;startSize=14;jumpStyle=arc;jumpSize=16;rounded=0;edgeStyle=orthogonalEdgeStyle;exitX=1;exitY=0.5;exitDx=0;exitDy=0;exitPerimeter=0;entryX=0;entryY=0.5;entryDx=0;entryDy=0;entryPerimeter=0;" edge="1" parent="WIyWlLk6GJQsqaUBKTNV-1" source="2Y-ausqchybXp7Ne50L6-21" target="2Y-ausqchybXp7Ne50L6-23">
            <mxGeometry width="240" relative="1" as="geometry">
              <mxPoint x="560" y="1930" as="sourcePoint" />
              <mxPoint x="800" y="1930" as="targetPoint" />
            </mxGeometry>
          </mxCell>
        </object>
        <object placeholders="1" c4Name="Пользователь" c4Type="User" c4Description="Тот, кто отправляет запросы для отчета" label="&lt;font style=&quot;font-size: 16px&quot;&gt;&lt;b&gt;%c4Name%&lt;/b&gt;&lt;/font&gt;&lt;div&gt;[%c4Type%]&lt;/div&gt;&lt;br&gt;&lt;div&gt;&lt;font style=&quot;font-size: 11px&quot;&gt;&lt;font color=&quot;#cccccc&quot;&gt;%c4Description%&lt;/font&gt;&lt;/div&gt;" id="2Y-ausqchybXp7Ne50L6-25">
          <mxCell style="html=1;fontSize=11;dashed=0;whiteSpace=wrap;fillColor=#083F75;strokeColor=#06315C;fontColor=#ffffff;shape=mxgraph.c4.person2;align=center;metaEdit=1;points=[[0.5,0,0],[1,0.5,0],[1,0.75,0],[0.75,1,0],[0.5,1,0],[0.25,1,0],[0,0.75,0],[0,0.5,0]];resizable=0;" vertex="1" parent="WIyWlLk6GJQsqaUBKTNV-1">
            <mxGeometry x="70" y="2410" width="200" height="180" as="geometry" />
          </mxCell>
        </object>
        <object placeholders="1" c4Type="Relationship" c4Description="использует API" label="&lt;div style=&quot;text-align: left&quot;&gt;&lt;div style=&quot;text-align: center&quot;&gt;&lt;b&gt;%c4Description%&lt;/b&gt;&lt;/div&gt;&lt;/div&gt;" id="2Y-ausqchybXp7Ne50L6-27">
          <mxCell style="endArrow=blockThin;html=1;fontSize=14;fontColor=#404040;strokeWidth=1;endFill=1;strokeColor=#828282;elbow=vertical;metaEdit=1;endSize=14;startSize=14;jumpStyle=arc;jumpSize=16;rounded=0;edgeStyle=orthogonalEdgeStyle;entryX=0;entryY=0.5;entryDx=0;entryDy=0;entryPerimeter=0;exitX=1;exitY=0.75;exitDx=0;exitDy=0;exitPerimeter=0;" edge="1" parent="WIyWlLk6GJQsqaUBKTNV-1" source="2Y-ausqchybXp7Ne50L6-25" target="2Y-ausqchybXp7Ne50L6-35">
            <mxGeometry x="-0.0014" width="240" relative="1" as="geometry">
              <mxPoint x="70" y="2770" as="sourcePoint" />
              <mxPoint x="70" y="2790" as="targetPoint" />
              <mxPoint as="offset" />
            </mxGeometry>
          </mxCell>
        </object>
        <object placeholders="1" c4Name="api_gateway" c4Type="ContainerScopeBoundary" c4Application="Container" label="&lt;font style=&quot;font-size: 16px&quot;&gt;&lt;b&gt;&lt;div style=&quot;text-align: left&quot;&gt;%c4Name%&lt;/div&gt;&lt;/b&gt;&lt;/font&gt;&lt;div style=&quot;text-align: left&quot;&gt;[%c4Application%]&lt;/div&gt;" id="2Y-ausqchybXp7Ne50L6-28">
          <mxCell style="rounded=1;fontSize=11;whiteSpace=wrap;html=1;dashed=1;arcSize=20;fillColor=none;strokeColor=#666666;fontColor=#333333;labelBackgroundColor=none;align=left;verticalAlign=bottom;labelBorderColor=none;spacingTop=0;spacing=10;dashPattern=8 4;metaEdit=1;rotatable=0;perimeter=rectanglePerimeter;noLabel=0;labelPadding=0;allowArrows=0;connectable=0;expand=0;recursiveResize=0;editable=1;pointerEvents=0;absoluteArcSize=1;points=[[0.25,0,0],[0.5,0,0],[0.75,0,0],[1,0.25,0],[1,0.5,0],[1,0.75,0],[0.75,1,0],[0.5,1,0],[0.25,1,0],[0,0.75,0],[0,0.5,0],[0,0.25,0]];" vertex="1" parent="WIyWlLk6GJQsqaUBKTNV-1">
            <mxGeometry x="20" y="2675" width="320" height="230" as="geometry" />
          </mxCell>
        </object>
        <object placeholders="1" c4Name="Вузовская система" c4Type="ContainerScopeBoundary" c4Application="Containers" label="&lt;font style=&quot;font-size: 16px&quot;&gt;&lt;b&gt;&lt;div style=&quot;text-align: left&quot;&gt;%c4Name%&lt;/div&gt;&lt;/b&gt;&lt;/font&gt;&lt;div style=&quot;text-align: left&quot;&gt;[%c4Application%]&lt;/div&gt;" id="2Y-ausqchybXp7Ne50L6-29">
          <mxCell style="rounded=1;fontSize=11;whiteSpace=wrap;html=1;dashed=1;arcSize=20;fillColor=none;strokeColor=#666666;fontColor=#333333;labelBackgroundColor=none;align=left;verticalAlign=bottom;labelBorderColor=none;spacingTop=0;spacing=10;dashPattern=8 4;metaEdit=1;rotatable=0;perimeter=rectanglePerimeter;noLabel=0;labelPadding=0;allowArrows=0;connectable=0;expand=0;recursiveResize=0;editable=1;pointerEvents=0;absoluteArcSize=1;points=[[0.25,0,0],[0.5,0,0],[0.75,0,0],[1,0.25,0],[1,0.5,0],[1,0.75,0],[0.75,1,0],[0.5,1,0],[0.25,1,0],[0,0.75,0],[0,0.5,0],[0,0.25,0]];" vertex="1" parent="WIyWlLk6GJQsqaUBKTNV-1">
            <mxGeometry x="174" y="1780" width="646" height="480" as="geometry" />
          </mxCell>
        </object>
        <object placeholders="1" c4Name="API gateway" c4Technology="fastAPI" c4Description="Отвечает за аутентификацию, проверку токенов и маршрутизацию запросов к внутренним сервисам." label="&lt;font style=&quot;font-size: 16px&quot;&gt;&lt;b&gt;%c4Name%&lt;/b&gt;&lt;/font&gt;&lt;div&gt;[%c4Technology%]&lt;/div&gt;&lt;br&gt;&lt;div&gt;&lt;font style=&quot;font-size: 11px&quot;&gt;&lt;font color=&quot;#E6E6E6&quot;&gt;%c4Description%&lt;/font&gt;&lt;/div&gt;" id="2Y-ausqchybXp7Ne50L6-30">
          <mxCell style="rounded=1;whiteSpace=wrap;html=1;fontSize=11;labelBackgroundColor=none;fillColor=#23A2D9;fontColor=#ffffff;align=center;arcSize=10;strokeColor=#0E7DAD;metaEdit=1;resizable=0;points=[[0.25,0,0],[0.5,0,0],[0.75,0,0],[1,0.25,0],[1,0.5,0],[1,0.75,0],[0.75,1,0],[0.5,1,0],[0.25,1,0],[0,0.75,0],[0,0.5,0],[0,0.25,0]];" vertex="1" parent="WIyWlLk6GJQsqaUBKTNV-1">
            <mxGeometry x="260" y="1860" width="240" height="120" as="geometry" />
          </mxCell>
        </object>
        <object placeholders="1" c4Name="API сервис lab1" c4Technology="fastAPI, python" c4Description="отчет о 10 студентах с минимальным процентом посещения лекция, содержащих заданный термин или фразу, за определенный период обучения." label="&lt;font style=&quot;font-size: 16px&quot;&gt;&lt;b&gt;%c4Name%&lt;/b&gt;&lt;/font&gt;&lt;div&gt;[%c4Technology%]&lt;/div&gt;&lt;br&gt;&lt;div&gt;&lt;font style=&quot;font-size: 11px&quot;&gt;&lt;font color=&quot;#E6E6E6&quot;&gt;%c4Description%&lt;/font&gt;&lt;/div&gt;" id="2Y-ausqchybXp7Ne50L6-31">
          <mxCell style="rounded=1;whiteSpace=wrap;html=1;fontSize=11;labelBackgroundColor=none;fillColor=#23A2D9;fontColor=#ffffff;align=center;arcSize=10;strokeColor=#0E7DAD;metaEdit=1;resizable=0;points=[[0.25,0,0],[0.5,0,0],[0.75,0,0],[1,0.25,0],[1,0.5,0],[1,0.75,0],[0.75,1,0],[0.5,1,0],[0.25,1,0],[0,0.75,0],[0,0.5,0],[0,0.25,0]];" vertex="1" parent="WIyWlLk6GJQsqaUBKTNV-1">
            <mxGeometry x="540" y="2440" width="240" height="120" as="geometry" />
          </mxCell>
        </object>
        <object placeholders="1" c4Name="API gateway" c4Technology="fastAPI" c4Description="Отвечает за аутентификацию, проверку токенов и маршрутизацию запросов к внутренним сервисам." label="&lt;font style=&quot;font-size: 16px&quot;&gt;&lt;b&gt;%c4Name%&lt;/b&gt;&lt;/font&gt;&lt;div&gt;[%c4Technology%]&lt;/div&gt;&lt;br&gt;&lt;div&gt;&lt;font style=&quot;font-size: 11px&quot;&gt;&lt;font color=&quot;#E6E6E6&quot;&gt;%c4Description%&lt;/font&gt;&lt;/div&gt;" id="2Y-ausqchybXp7Ne50L6-35">
          <mxCell style="rounded=1;whiteSpace=wrap;html=1;fontSize=11;labelBackgroundColor=none;fillColor=#23A2D9;fontColor=#ffffff;align=center;arcSize=10;strokeColor=#0E7DAD;metaEdit=1;resizable=0;points=[[0.25,0,0],[0.5,0,0],[0.75,0,0],[1,0.25,0],[1,0.5,0],[1,0.75,0],[0.75,1,0],[0.5,1,0],[0.25,1,0],[0,0.75,0],[0,0.5,0],[0,0.25,0]];" vertex="1" parent="WIyWlLk6GJQsqaUBKTNV-1">
            <mxGeometry x="70" y="2730" width="240" height="120" as="geometry" />
          </mxCell>
        </object>
        <object placeholders="1" c4Type="Relationship" c4Description="перенаправление запроса /lab1" label="&lt;div style=&quot;text-align: left&quot;&gt;&lt;div style=&quot;text-align: center&quot;&gt;&lt;b&gt;%c4Description%&lt;/b&gt;&lt;/div&gt;&lt;/div&gt;" id="2Y-ausqchybXp7Ne50L6-36">
          <mxCell style="endArrow=blockThin;html=1;fontSize=13;fontColor=#404040;strokeWidth=1;endFill=1;strokeColor=#828282;elbow=vertical;metaEdit=1;endSize=14;startSize=14;jumpStyle=arc;jumpSize=16;rounded=0;edgeStyle=orthogonalEdgeStyle;entryX=0;entryY=0.5;entryDx=0;entryDy=0;entryPerimeter=0;exitX=1;exitY=0.25;exitDx=0;exitDy=0;exitPerimeter=0;" edge="1" parent="WIyWlLk6GJQsqaUBKTNV-1" source="2Y-ausqchybXp7Ne50L6-35" target="2Y-ausqchybXp7Ne50L6-31">
            <mxGeometry width="240" relative="1" as="geometry">
              <mxPoint x="250" y="2970" as="sourcePoint" />
              <mxPoint x="490" y="2970" as="targetPoint" />
            </mxGeometry>
          </mxCell>
        </object>
        <object placeholders="1" c4Type="Relationship" c4Description="перенаправление запроса /lab2" label="&lt;div style=&quot;text-align: left&quot;&gt;&lt;div style=&quot;text-align: center&quot;&gt;&lt;b&gt;%c4Description%&lt;/b&gt;&lt;/div&gt;&lt;/div&gt;" id="2Y-ausqchybXp7Ne50L6-37">
          <mxCell style="endArrow=blockThin;html=1;fontSize=13;fontColor=#404040;strokeWidth=1;endFill=1;strokeColor=#828282;elbow=vertical;metaEdit=1;endSize=14;startSize=14;jumpStyle=arc;jumpSize=16;rounded=0;edgeStyle=orthogonalEdgeStyle;exitX=1;exitY=0.5;exitDx=0;exitDy=0;exitPerimeter=0;entryX=0;entryY=0.5;entryDx=0;entryDy=0;entryPerimeter=0;" edge="1" parent="WIyWlLk6GJQsqaUBKTNV-1" source="2Y-ausqchybXp7Ne50L6-35" target="2Y-ausqchybXp7Ne50L6-42">
            <mxGeometry width="240" relative="1" as="geometry">
              <mxPoint x="330" y="2940" as="sourcePoint" />
              <mxPoint x="520" y="2790.0000000000005" as="targetPoint" />
            </mxGeometry>
          </mxCell>
        </object>
        <object placeholders="1" c4Type="Relationship" c4Description="перенаправление запроса /lab3" label="&lt;div style=&quot;text-align: left&quot;&gt;&lt;div style=&quot;text-align: center&quot;&gt;&lt;b&gt;%c4Description%&lt;/b&gt;&lt;/div&gt;&lt;/div&gt;" id="2Y-ausqchybXp7Ne50L6-38">
          <mxCell style="endArrow=blockThin;html=1;fontSize=13;fontColor=#404040;strokeWidth=1;endFill=1;strokeColor=#828282;elbow=vertical;metaEdit=1;endSize=14;startSize=14;jumpStyle=arc;jumpSize=16;rounded=0;edgeStyle=orthogonalEdgeStyle;exitX=1;exitY=0.75;exitDx=0;exitDy=0;exitPerimeter=0;entryX=0;entryY=0.5;entryDx=0;entryDy=0;entryPerimeter=0;" edge="1" parent="WIyWlLk6GJQsqaUBKTNV-1" source="2Y-ausqchybXp7Ne50L6-35" target="2Y-ausqchybXp7Ne50L6-43">
            <mxGeometry width="240" relative="1" as="geometry">
              <mxPoint x="269.5" y="2870" as="sourcePoint" />
              <mxPoint x="520" y="3060" as="targetPoint" />
            </mxGeometry>
          </mxCell>
        </object>
        <object placeholders="1" c4Name="lab1" c4Type="ContainerScopeBoundary" c4Application="Container" label="&lt;font style=&quot;font-size: 16px&quot;&gt;&lt;b&gt;&lt;div style=&quot;text-align: left&quot;&gt;%c4Name%&lt;/div&gt;&lt;/b&gt;&lt;/font&gt;&lt;div style=&quot;text-align: left&quot;&gt;[%c4Application%]&lt;/div&gt;" id="2Y-ausqchybXp7Ne50L6-39">
          <mxCell style="rounded=1;fontSize=11;whiteSpace=wrap;html=1;dashed=1;arcSize=20;fillColor=none;strokeColor=#666666;fontColor=#333333;labelBackgroundColor=none;align=left;verticalAlign=bottom;labelBorderColor=none;spacingTop=0;spacing=10;dashPattern=8 4;metaEdit=1;rotatable=0;perimeter=rectanglePerimeter;noLabel=0;labelPadding=0;allowArrows=0;connectable=0;expand=0;recursiveResize=0;editable=1;pointerEvents=0;absoluteArcSize=1;points=[[0.25,0,0],[0.5,0,0],[0.75,0,0],[1,0.25,0],[1,0.5,0],[1,0.75,0],[0.75,1,0],[0.5,1,0],[0.25,1,0],[0,0.75,0],[0,0.5,0],[0,0.25,0]];" vertex="1" parent="WIyWlLk6GJQsqaUBKTNV-1">
            <mxGeometry x="475" y="2395" width="370" height="225" as="geometry" />
          </mxCell>
        </object>
        <object placeholders="1" c4Name="lab2" c4Type="ContainerScopeBoundary" c4Application="Container" label="&lt;font style=&quot;font-size: 16px&quot;&gt;&lt;b&gt;&lt;div style=&quot;text-align: left&quot;&gt;%c4Name%&lt;/div&gt;&lt;/b&gt;&lt;/font&gt;&lt;div style=&quot;text-align: left&quot;&gt;[%c4Application%]&lt;/div&gt;" id="2Y-ausqchybXp7Ne50L6-40">
          <mxCell style="rounded=1;fontSize=11;whiteSpace=wrap;html=1;dashed=1;arcSize=20;fillColor=none;strokeColor=#666666;fontColor=#333333;labelBackgroundColor=none;align=left;verticalAlign=bottom;labelBorderColor=none;spacingTop=0;spacing=10;dashPattern=8 4;metaEdit=1;rotatable=0;perimeter=rectanglePerimeter;noLabel=0;labelPadding=0;allowArrows=0;connectable=0;expand=0;recursiveResize=0;editable=1;pointerEvents=0;absoluteArcSize=1;points=[[0.25,0,0],[0.5,0,0],[0.75,0,0],[1,0.25,0],[1,0.5,0],[1,0.75,0],[0.75,1,0],[0.5,1,0],[0.25,1,0],[0,0.75,0],[0,0.5,0],[0,0.25,0]];" vertex="1" parent="WIyWlLk6GJQsqaUBKTNV-1">
            <mxGeometry x="480" y="2680" width="370" height="225" as="geometry" />
          </mxCell>
        </object>
        <object placeholders="1" c4Name="lab3" c4Type="ContainerScopeBoundary" c4Application="Container" label="&lt;font style=&quot;font-size: 16px&quot;&gt;&lt;b&gt;&lt;div style=&quot;text-align: left&quot;&gt;%c4Name%&lt;/div&gt;&lt;/b&gt;&lt;/font&gt;&lt;div style=&quot;text-align: left&quot;&gt;[%c4Application%]&lt;/div&gt;" id="2Y-ausqchybXp7Ne50L6-41">
          <mxCell style="rounded=1;fontSize=11;whiteSpace=wrap;html=1;dashed=1;arcSize=20;fillColor=none;strokeColor=#666666;fontColor=#333333;labelBackgroundColor=none;align=left;verticalAlign=bottom;labelBorderColor=none;spacingTop=0;spacing=10;dashPattern=8 4;metaEdit=1;rotatable=0;perimeter=rectanglePerimeter;noLabel=0;labelPadding=0;allowArrows=0;connectable=0;expand=0;recursiveResize=0;editable=1;pointerEvents=0;absoluteArcSize=1;points=[[0.25,0,0],[0.5,0,0],[0.75,0,0],[1,0.25,0],[1,0.5,0],[1,0.75,0],[0.75,1,0],[0.5,1,0],[0.25,1,0],[0,0.75,0],[0,0.5,0],[0,0.25,0]];" vertex="1" parent="WIyWlLk6GJQsqaUBKTNV-1">
            <mxGeometry x="480" y="2960" width="370" height="225" as="geometry" />
          </mxCell>
        </object>
        <object placeholders="1" c4Name="API сервис lab2" c4Technology="fastAPI, python" c4Description="отчет о необходимом объеме аудитории для проведения занятий по курсу заданного семестра и года обучения с требованиями в описании к использованию технических средств. " label="&lt;font style=&quot;font-size: 16px&quot;&gt;&lt;b&gt;%c4Name%&lt;/b&gt;&lt;/font&gt;&lt;div&gt;[%c4Technology%]&lt;/div&gt;&lt;br&gt;&lt;div&gt;&lt;font style=&quot;font-size: 11px&quot;&gt;&lt;font color=&quot;#E6E6E6&quot;&gt;%c4Description%&lt;/font&gt;&lt;/div&gt;" id="2Y-ausqchybXp7Ne50L6-42">
          <mxCell style="rounded=1;whiteSpace=wrap;html=1;fontSize=11;labelBackgroundColor=none;fillColor=#23A2D9;fontColor=#ffffff;align=center;arcSize=10;strokeColor=#0E7DAD;metaEdit=1;resizable=0;points=[[0.25,0,0],[0.5,0,0],[0.75,0,0],[1,0.25,0],[1,0.5,0],[1,0.75,0],[0.75,1,0],[0.5,1,0],[0.25,1,0],[0,0.75,0],[0,0.5,0],[0,0.25,0]];" vertex="1" parent="WIyWlLk6GJQsqaUBKTNV-1">
            <mxGeometry x="540" y="2730" width="240" height="120" as="geometry" />
          </mxCell>
        </object>
        <object placeholders="1" c4Name="API сервис lab3" c4Technology="fastAPI, python" c4Description="отчет по заданной группе учащихся с указанием объема прослушанных часов лекций а также необходимого объема запланированных часов, в рамках всех курсов для каждого студента группы.  " label="&lt;font style=&quot;font-size: 16px&quot;&gt;&lt;b&gt;%c4Name%&lt;/b&gt;&lt;/font&gt;&lt;div&gt;[%c4Technology%]&lt;/div&gt;&lt;br&gt;&lt;div&gt;&lt;font style=&quot;font-size: 11px&quot;&gt;&lt;font color=&quot;#E6E6E6&quot;&gt;%c4Description%&lt;/font&gt;&lt;/div&gt;" id="2Y-ausqchybXp7Ne50L6-43">
          <mxCell style="rounded=1;whiteSpace=wrap;html=1;fontSize=11;labelBackgroundColor=none;fillColor=#23A2D9;fontColor=#ffffff;align=center;arcSize=10;strokeColor=#0E7DAD;metaEdit=1;resizable=0;points=[[0.25,0,0],[0.5,0,0],[0.75,0,0],[1,0.25,0],[1,0.5,0],[1,0.75,0],[0.75,1,0],[0.5,1,0],[0.25,1,0],[0,0.75,0],[0,0.5,0],[0,0.25,0]];" vertex="1" parent="WIyWlLk6GJQsqaUBKTNV-1">
            <mxGeometry x="545" y="3010" width="240" height="120" as="geometry" />
          </mxCell>
        </object>
        <object placeholders="1" c4Name="data_center" c4Type="Python Script" c4Description="генератор данных" label="&lt;font&gt;&lt;b&gt;%c4Name%&lt;/b&gt;&lt;/font&gt;&lt;div&gt;[%c4Type%]&lt;/div&gt;&lt;br&gt;&lt;div&gt;&lt;font&gt;&lt;font color=&quot;#cccccc&quot;&gt;%c4Description%&lt;/font&gt;&lt;/font&gt;&lt;/div&gt;" id="2Y-ausqchybXp7Ne50L6-44">
          <mxCell style="rounded=1;whiteSpace=wrap;html=1;labelBackgroundColor=none;fillColor=#1061B0;fontColor=#ffffff;align=center;arcSize=10;strokeColor=#0D5091;metaEdit=1;resizable=0;points=[[0.25,0,0],[0.5,0,0],[0.75,0,0],[1,0.25,0],[1,0.5,0],[1,0.75,0],[0.75,1,0],[0.5,1,0],[0.25,1,0],[0,0.75,0],[0,0.5,0],[0,0.25,0]];fontSize=15;" vertex="1" parent="WIyWlLk6GJQsqaUBKTNV-1">
            <mxGeometry x="1534" y="2780" width="240" height="120" as="geometry" />
          </mxCell>
        </object>
        <object placeholders="1" c4Type="Relationship" c4Description="Инициализация данных &#xa;Neo4j driver" label="&lt;div style=&quot;text-align: left&quot;&gt;&lt;div style=&quot;text-align: center&quot;&gt;&lt;b&gt;%c4Description%&lt;/b&gt;&lt;/div&gt;&lt;/div&gt;" id="2Y-ausqchybXp7Ne50L6-45">
          <mxCell style="endArrow=blockThin;html=1;fontSize=14;fontColor=#404040;strokeWidth=1;endFill=1;strokeColor=#828282;elbow=vertical;metaEdit=1;endSize=14;startSize=14;jumpStyle=arc;jumpSize=16;rounded=0;edgeStyle=orthogonalEdgeStyle;exitX=0;exitY=0.75;exitDx=0;exitDy=0;exitPerimeter=0;entryX=1;entryY=0.5;entryDx=0;entryDy=0;entryPerimeter=0;" edge="1" parent="WIyWlLk6GJQsqaUBKTNV-1" source="2Y-ausqchybXp7Ne50L6-44" target="CtTwP5JheZMf3GZqyAbj-67">
            <mxGeometry width="240" relative="1" as="geometry">
              <mxPoint x="1540" y="3010" as="sourcePoint" />
              <mxPoint x="1780" y="3010" as="targetPoint" />
            </mxGeometry>
          </mxCell>
        </object>
        <object placeholders="1" c4Type="Relationship" c4Description="Инициализация данных &#xa;Redis protocol" label="&lt;div style=&quot;text-align: left&quot;&gt;&lt;div style=&quot;text-align: center&quot;&gt;&lt;b&gt;%c4Description%&lt;/b&gt;&lt;/div&gt;&lt;/div&gt;" id="2Y-ausqchybXp7Ne50L6-46">
          <mxCell style="endArrow=blockThin;html=1;fontSize=14;fontColor=#404040;strokeWidth=1;endFill=1;strokeColor=#828282;elbow=vertical;metaEdit=1;endSize=14;startSize=14;jumpStyle=arc;jumpSize=16;rounded=0;edgeStyle=orthogonalEdgeStyle;entryX=1;entryY=0.5;entryDx=0;entryDy=0;entryPerimeter=0;" edge="1" parent="WIyWlLk6GJQsqaUBKTNV-1" target="CtTwP5JheZMf3GZqyAbj-64">
            <mxGeometry width="240" relative="1" as="geometry">
              <mxPoint x="1590" y="2840" as="sourcePoint" />
              <mxPoint x="1680" y="2930" as="targetPoint" />
              <mxPoint as="offset" />
            </mxGeometry>
          </mxCell>
        </object>
        <object placeholders="1" c4Type="Relationship" c4Description="Инициализация данных &#xa;Mongo driver" label="&lt;div style=&quot;text-align: left&quot;&gt;&lt;div style=&quot;text-align: center&quot;&gt;&lt;b&gt;%c4Description%&lt;/b&gt;&lt;/div&gt;&lt;/div&gt;" id="2Y-ausqchybXp7Ne50L6-47">
          <mxCell style="endArrow=blockThin;html=1;fontSize=14;fontColor=#404040;strokeWidth=1;endFill=1;strokeColor=#828282;elbow=vertical;metaEdit=1;endSize=14;startSize=14;jumpStyle=arc;jumpSize=16;rounded=0;edgeStyle=orthogonalEdgeStyle;exitX=0;exitY=0.25;exitDx=0;exitDy=0;exitPerimeter=0;entryX=1;entryY=0.5;entryDx=0;entryDy=0;entryPerimeter=0;" edge="1" parent="WIyWlLk6GJQsqaUBKTNV-1" source="2Y-ausqchybXp7Ne50L6-44" target="CtTwP5JheZMf3GZqyAbj-63">
            <mxGeometry width="240" relative="1" as="geometry">
              <mxPoint x="1340" y="2598" as="sourcePoint" />
              <mxPoint x="1580" y="2598" as="targetPoint" />
            </mxGeometry>
          </mxCell>
        </object>
        <object placeholders="1" c4Type="Relationship" c4Description="Инициализация данных &#xa;SQL" label="&lt;div style=&quot;text-align: left&quot;&gt;&lt;div style=&quot;text-align: center&quot;&gt;&lt;b&gt;%c4Description%&lt;/b&gt;&lt;/div&gt;&lt;/div&gt;" id="2Y-ausqchybXp7Ne50L6-48">
          <mxCell style="endArrow=blockThin;html=1;fontSize=14;fontColor=#404040;strokeWidth=1;endFill=1;strokeColor=#828282;elbow=vertical;metaEdit=1;endSize=14;startSize=14;jumpStyle=arc;jumpSize=16;rounded=0;edgeStyle=orthogonalEdgeStyle;entryX=1;entryY=0.5;entryDx=0;entryDy=0;entryPerimeter=0;exitX=0.25;exitY=0;exitDx=0;exitDy=0;exitPerimeter=0;" edge="1" parent="WIyWlLk6GJQsqaUBKTNV-1" source="2Y-ausqchybXp7Ne50L6-44" target="CtTwP5JheZMf3GZqyAbj-65">
            <mxGeometry width="240" relative="1" as="geometry">
              <mxPoint x="1420" y="2530" as="sourcePoint" />
              <mxPoint x="1660" y="2530" as="targetPoint" />
            </mxGeometry>
          </mxCell>
        </object>
        <object placeholders="1" c4Type="Relationship" c4Description="Инициализация данных &#xa;HTTP" label="&lt;div style=&quot;text-align: left&quot;&gt;&lt;div style=&quot;text-align: center&quot;&gt;&lt;b&gt;%c4Description%&lt;/b&gt;&lt;/div&gt;&lt;/div&gt;" id="2Y-ausqchybXp7Ne50L6-49">
          <mxCell style="endArrow=blockThin;html=1;fontSize=14;fontColor=#404040;strokeWidth=1;endFill=1;strokeColor=#828282;elbow=vertical;metaEdit=1;endSize=14;startSize=14;jumpStyle=arc;jumpSize=16;rounded=0;edgeStyle=orthogonalEdgeStyle;exitX=0.25;exitY=1;exitDx=0;exitDy=0;exitPerimeter=0;entryX=1;entryY=0.5;entryDx=0;entryDy=0;entryPerimeter=0;" edge="1" parent="WIyWlLk6GJQsqaUBKTNV-1" source="2Y-ausqchybXp7Ne50L6-44" target="CtTwP5JheZMf3GZqyAbj-68">
            <mxGeometry width="240" relative="1" as="geometry">
              <mxPoint x="940" y="2880" as="sourcePoint" />
              <mxPoint x="1180" y="2880" as="targetPoint" />
            </mxGeometry>
          </mxCell>
        </object>
        <object placeholders="1" c4Type="Relationship" c4Description="данные о посещаемости &#xa;студентов SQL" label="&lt;div style=&quot;text-align: left&quot;&gt;&lt;div style=&quot;text-align: center&quot;&gt;&lt;b&gt;%c4Description%&lt;/b&gt;&lt;/div&gt;&lt;/div&gt;" id="2Y-ausqchybXp7Ne50L6-50">
          <mxCell style="endArrow=blockThin;html=1;fontSize=13;fontColor=#404040;strokeWidth=1;endFill=1;strokeColor=#d79b00;elbow=vertical;metaEdit=1;endSize=14;startSize=14;jumpStyle=arc;jumpSize=16;rounded=0;edgeStyle=orthogonalEdgeStyle;exitX=0.75;exitY=0;exitDx=0;exitDy=0;exitPerimeter=0;entryX=0;entryY=0.25;entryDx=0;entryDy=0;entryPerimeter=0;fillColor=#ffe6cc;" edge="1" parent="WIyWlLk6GJQsqaUBKTNV-1" source="2Y-ausqchybXp7Ne50L6-31" target="CtTwP5JheZMf3GZqyAbj-65">
            <mxGeometry width="240" relative="1" as="geometry">
              <mxPoint x="845" y="2558.89" as="sourcePoint" />
              <mxPoint x="1085" y="2558.89" as="targetPoint" />
            </mxGeometry>
          </mxCell>
        </object>
        <object placeholders="1" c4Type="Relationship" c4Description="Данные о студентах по id &#xa;Redis protocol" label="&lt;div style=&quot;text-align: left&quot;&gt;&lt;div style=&quot;text-align: center&quot;&gt;&lt;b&gt;%c4Description%&lt;/b&gt;&lt;/div&gt;&lt;/div&gt;" id="2Y-ausqchybXp7Ne50L6-51">
          <mxCell style="endArrow=blockThin;html=1;fontSize=13;fontColor=#404040;strokeWidth=1;endFill=1;strokeColor=#d79b00;elbow=vertical;metaEdit=1;endSize=14;startSize=14;jumpStyle=arc;jumpSize=16;rounded=0;edgeStyle=orthogonalEdgeStyle;exitX=1;exitY=0.25;exitDx=0;exitDy=0;exitPerimeter=0;entryX=0;entryY=0.25;entryDx=0;entryDy=0;entryPerimeter=0;fillColor=#ffe6cc;" edge="1" parent="WIyWlLk6GJQsqaUBKTNV-1" source="2Y-ausqchybXp7Ne50L6-31" target="CtTwP5JheZMf3GZqyAbj-64">
            <mxGeometry width="240" relative="1" as="geometry">
              <mxPoint x="845" y="2626" as="sourcePoint" />
              <mxPoint x="1085" y="2626" as="targetPoint" />
              <Array as="points">
                <mxPoint x="1001" y="2470" />
                <mxPoint x="1001" y="2810" />
              </Array>
            </mxGeometry>
          </mxCell>
        </object>
        <object placeholders="1" c4Type="Relationship" c4Description="получение id студентов, &#xa;посещавшие лекции Neo4j Driver" label="&lt;div style=&quot;text-align: left&quot;&gt;&lt;div style=&quot;text-align: center&quot;&gt;&lt;b&gt;%c4Description%&lt;/b&gt;&lt;/div&gt;&lt;/div&gt;" id="2Y-ausqchybXp7Ne50L6-52">
          <mxCell style="endArrow=blockThin;html=1;fontSize=12;fontColor=#404040;strokeWidth=1;endFill=1;strokeColor=#d79b00;elbow=vertical;metaEdit=1;endSize=14;startSize=14;jumpStyle=arc;jumpSize=16;rounded=0;edgeStyle=orthogonalEdgeStyle;exitX=1;exitY=0.5;exitDx=0;exitDy=0;exitPerimeter=0;entryX=0;entryY=0.25;entryDx=0;entryDy=0;entryPerimeter=0;fillColor=#ffe6cc;" edge="1" parent="WIyWlLk6GJQsqaUBKTNV-1" source="2Y-ausqchybXp7Ne50L6-31" target="CtTwP5JheZMf3GZqyAbj-67">
            <mxGeometry width="240" relative="1" as="geometry">
              <mxPoint x="650" y="2613" as="sourcePoint" />
              <mxPoint x="890" y="2613" as="targetPoint" />
              <Array as="points">
                <mxPoint x="988" y="2500" />
                <mxPoint x="988" y="2980" />
              </Array>
            </mxGeometry>
          </mxCell>
        </object>
        <object placeholders="1" c4Type="Relationship" c4Description="получение id лекций по термину&#xa;HTTP" label="&lt;div style=&quot;text-align: left&quot;&gt;&lt;div style=&quot;text-align: center&quot;&gt;&lt;b&gt;%c4Description%&lt;/b&gt;&lt;/div&gt;&lt;/div&gt;" id="2Y-ausqchybXp7Ne50L6-55">
          <mxCell style="endArrow=blockThin;html=1;fontSize=12;fontColor=#404040;strokeWidth=1;endFill=1;strokeColor=#d79b00;elbow=vertical;metaEdit=1;endSize=14;startSize=14;jumpStyle=arc;jumpSize=16;rounded=0;edgeStyle=orthogonalEdgeStyle;entryX=0;entryY=0.75;entryDx=0;entryDy=0;entryPerimeter=0;exitX=1;exitY=0.75;exitDx=0;exitDy=0;exitPerimeter=0;fillColor=#ffe6cc;" edge="1" parent="WIyWlLk6GJQsqaUBKTNV-1" source="2Y-ausqchybXp7Ne50L6-31" target="CtTwP5JheZMf3GZqyAbj-68">
            <mxGeometry x="0.699" width="240" relative="1" as="geometry">
              <mxPoint x="767" y="2834" as="sourcePoint" />
              <mxPoint x="1007" y="2834" as="targetPoint" />
              <Array as="points">
                <mxPoint x="1040" y="2530" />
                <mxPoint x="1040" y="3190" />
              </Array>
              <mxPoint as="offset" />
            </mxGeometry>
          </mxCell>
        </object>
        <object placeholders="1" c4Type="Relationship" c4Description="Данные о количестве студентов&#xa;Neo4j Driver" label="&lt;div style=&quot;text-align: left&quot;&gt;&lt;div style=&quot;text-align: center&quot;&gt;&lt;b&gt;%c4Description%&lt;/b&gt;&lt;/div&gt;&lt;/div&gt;" id="2Y-ausqchybXp7Ne50L6-56">
          <mxCell style="endArrow=blockThin;html=1;fontSize=12;fontColor=#404040;strokeWidth=1;endFill=1;strokeColor=#828282;elbow=vertical;metaEdit=1;endSize=14;startSize=14;jumpStyle=arc;jumpSize=16;rounded=0;edgeStyle=orthogonalEdgeStyle;exitX=1;exitY=0.25;exitDx=0;exitDy=0;exitPerimeter=0;entryX=0;entryY=0.5;entryDx=0;entryDy=0;entryPerimeter=0;" edge="1" parent="WIyWlLk6GJQsqaUBKTNV-1" source="2Y-ausqchybXp7Ne50L6-42" target="CtTwP5JheZMf3GZqyAbj-67">
            <mxGeometry width="240" relative="1" as="geometry">
              <mxPoint x="689" y="3302" as="sourcePoint" />
              <mxPoint x="929" y="3302" as="targetPoint" />
            </mxGeometry>
          </mxCell>
        </object>
        <object placeholders="1" c4Type="Relationship" c4Description="Данные о курсе лекций &#xa;по названию курса,&#xa;о кол-ве лекций и посещаемости&#xa;SQL" label="&lt;div style=&quot;text-align: left&quot;&gt;&lt;div style=&quot;text-align: center&quot;&gt;&lt;b&gt;%c4Description%&lt;/b&gt;&lt;/div&gt;&lt;/div&gt;" id="2Y-ausqchybXp7Ne50L6-57">
          <mxCell style="endArrow=blockThin;html=1;fontSize=12;fontColor=#404040;strokeWidth=1;endFill=1;strokeColor=#828282;elbow=vertical;metaEdit=1;endSize=14;startSize=14;jumpStyle=arc;jumpSize=16;rounded=0;edgeStyle=orthogonalEdgeStyle;entryX=0;entryY=0.5;entryDx=0;entryDy=0;entryPerimeter=0;exitX=0.986;exitY=0.643;exitDx=0;exitDy=0;exitPerimeter=0;" edge="1" parent="WIyWlLk6GJQsqaUBKTNV-1" source="2Y-ausqchybXp7Ne50L6-42" target="CtTwP5JheZMf3GZqyAbj-65">
            <mxGeometry x="-0.113" width="240" relative="1" as="geometry">
              <mxPoint x="884" y="3146" as="sourcePoint" />
              <mxPoint x="1124" y="3146" as="targetPoint" />
              <Array as="points">
                <mxPoint x="897" y="2807" />
                <mxPoint x="897" y="2470" />
              </Array>
              <mxPoint as="offset" />
            </mxGeometry>
          </mxCell>
        </object>
        <object placeholders="1" c4Type="Relationship" c4Description="Данные о студентах и расписании&#xa;Neo4j driver" label="&lt;div style=&quot;text-align: left&quot;&gt;&lt;div style=&quot;text-align: center&quot;&gt;&lt;b&gt;%c4Description%&lt;/b&gt;&lt;/div&gt;&lt;/div&gt;" id="2Y-ausqchybXp7Ne50L6-58">
          <mxCell style="endArrow=blockThin;html=1;fontSize=12;fontColor=#404040;strokeWidth=1;endFill=1;strokeColor=#82b366;elbow=vertical;metaEdit=1;endSize=14;startSize=14;jumpStyle=arc;jumpSize=16;rounded=0;edgeStyle=orthogonalEdgeStyle;fillColor=#d5e8d4;entryX=0;entryY=0.75;entryDx=0;entryDy=0;entryPerimeter=0;exitX=1;exitY=0.75;exitDx=0;exitDy=0;exitPerimeter=0;" edge="1" parent="WIyWlLk6GJQsqaUBKTNV-1" source="2Y-ausqchybXp7Ne50L6-43" target="CtTwP5JheZMf3GZqyAbj-67">
            <mxGeometry x="-0.0008" width="240" relative="1" as="geometry">
              <mxPoint x="806" y="3237" as="sourcePoint" />
              <mxPoint x="1046" y="3237" as="targetPoint" />
              <Array as="points">
                <mxPoint x="785" y="3224" />
                <mxPoint x="975" y="3224" />
                <mxPoint x="975" y="3040" />
              </Array>
              <mxPoint as="offset" />
            </mxGeometry>
          </mxCell>
        </object>
        <object placeholders="1" c4Type="Relationship" c4Description="Данные о студентах по id&#xa;Redis protocol" label="&lt;div style=&quot;text-align: left&quot;&gt;&lt;div style=&quot;text-align: center&quot;&gt;&lt;b&gt;%c4Description%&lt;/b&gt;&lt;/div&gt;&lt;/div&gt;" id="2Y-ausqchybXp7Ne50L6-59">
          <mxCell style="endArrow=blockThin;html=1;fontSize=12;fontColor=#404040;strokeWidth=1;endFill=1;strokeColor=#82b366;elbow=vertical;metaEdit=1;endSize=14;startSize=14;jumpStyle=arc;jumpSize=16;rounded=0;edgeStyle=orthogonalEdgeStyle;entryX=0;entryY=0.5;entryDx=0;entryDy=0;entryPerimeter=0;exitX=1;exitY=0.5;exitDx=0;exitDy=0;exitPerimeter=0;fillColor=#d5e8d4;" edge="1" parent="WIyWlLk6GJQsqaUBKTNV-1" source="2Y-ausqchybXp7Ne50L6-43" target="CtTwP5JheZMf3GZqyAbj-64">
            <mxGeometry x="-0.4764" width="240" relative="1" as="geometry">
              <mxPoint x="741" y="2951" as="sourcePoint" />
              <mxPoint x="981" y="2951" as="targetPoint" />
              <Array as="points">
                <mxPoint x="884" y="3070" />
                <mxPoint x="884" y="2840" />
              </Array>
              <mxPoint as="offset" />
            </mxGeometry>
          </mxCell>
        </object>
        <object placeholders="1" c4Type="Relationship" c4Description="1) Данные о специальных лекциях и группах&#xa;2) подсчет посещаемости&#xa;SQL" label="&lt;div style=&quot;text-align: left&quot;&gt;&lt;div style=&quot;text-align: center&quot;&gt;&lt;b&gt;%c4Description%&lt;/b&gt;&lt;/div&gt;&lt;/div&gt;" id="2Y-ausqchybXp7Ne50L6-60">
          <mxCell style="endArrow=blockThin;html=1;fontSize=12;fontColor=#404040;strokeWidth=1;endFill=1;strokeColor=#82b366;elbow=vertical;metaEdit=1;endSize=14;startSize=14;jumpStyle=arc;jumpSize=16;rounded=0;edgeStyle=orthogonalEdgeStyle;entryX=0;entryY=0.75;entryDx=0;entryDy=0;entryPerimeter=0;exitX=1;exitY=0.25;exitDx=0;exitDy=0;exitPerimeter=0;fillColor=#d5e8d4;" edge="1" parent="WIyWlLk6GJQsqaUBKTNV-1" source="2Y-ausqchybXp7Ne50L6-43" target="CtTwP5JheZMf3GZqyAbj-65">
            <mxGeometry x="-0.678" width="240" relative="1" as="geometry">
              <mxPoint x="572" y="2899" as="sourcePoint" />
              <mxPoint x="812" y="2899" as="targetPoint" />
              <Array as="points">
                <mxPoint x="832" y="3040" />
                <mxPoint x="832" y="2500" />
              </Array>
              <mxPoint as="offset" />
            </mxGeometry>
          </mxCell>
        </object>
      </root>
    </mxGraphModel>
  </diagram>
</mxfile>
